<mxfile host="app.diagrams.net" modified="2023-07-18T20:32:48.926Z" agent="Mozilla/5.0 (X11; Linux x86_64) AppleWebKit/537.36 (KHTML, like Gecko) Chrome/115.0.0.0 Safari/537.36" etag="XX_DNUthSNk2XurMw1d2" version="21.6.2" type="device">
  <diagram name="Page-1" id="DNfcuZpfrOHgjCDvxA1q">
    <mxGraphModel dx="2109" dy="735" grid="1" gridSize="10" guides="1" tooltips="1" connect="1" arrows="1" fold="1" page="1" pageScale="1" pageWidth="850" pageHeight="1100" math="0" shadow="0">
      <root>
        <mxCell id="0" />
        <mxCell id="1" parent="0" />
        <mxCell id="-uo0044DNCpjLpEEd0ED-10" value="" style="shape=cylinder3;whiteSpace=wrap;html=1;boundedLbl=1;backgroundOutline=1;size=15;fillColor=#dae8fc;strokeColor=#6c8ebf;" vertex="1" parent="1">
          <mxGeometry x="425" y="170" width="120" height="100" as="geometry" />
        </mxCell>
        <mxCell id="-uo0044DNCpjLpEEd0ED-1" value="" style="rounded=0;whiteSpace=wrap;html=1;fillColor=#d5e8d4;strokeColor=#82b366;" vertex="1" parent="1">
          <mxGeometry x="170" y="320" width="430" height="280" as="geometry" />
        </mxCell>
        <mxCell id="-uo0044DNCpjLpEEd0ED-2" value="IndexedDB" style="shape=cylinder3;whiteSpace=wrap;html=1;boundedLbl=1;backgroundOutline=1;size=15;fillColor=#dae8fc;strokeColor=#6c8ebf;" vertex="1" parent="1">
          <mxGeometry x="238.5" y="480" width="93" height="110" as="geometry" />
        </mxCell>
        <mxCell id="-uo0044DNCpjLpEEd0ED-3" value="&lt;br&gt;&lt;br&gt;Wallet extension &lt;br&gt;(e.g. Metamask/Rabby)" style="rounded=0;whiteSpace=wrap;html=1;fillColor=#f5f5f5;fontColor=#333333;strokeColor=#666666;" vertex="1" parent="1">
          <mxGeometry x="200" y="380" width="170" height="80" as="geometry" />
        </mxCell>
        <mxCell id="-uo0044DNCpjLpEEd0ED-4" value="&lt;b&gt;stateborn.org &lt;br&gt;(client application)&lt;/b&gt;" style="rounded=0;whiteSpace=wrap;html=1;" vertex="1" parent="1">
          <mxGeometry x="430" y="440" width="120" height="60" as="geometry" />
        </mxCell>
        <mxCell id="-uo0044DNCpjLpEEd0ED-6" value="&lt;font style=&quot;font-size: 18px;&quot;&gt;User Internet browser&lt;/font&gt;" style="text;html=1;strokeColor=none;fillColor=none;align=center;verticalAlign=middle;whiteSpace=wrap;rounded=0;" vertex="1" parent="1">
          <mxGeometry x="185" y="320" width="200" height="30" as="geometry" />
        </mxCell>
        <mxCell id="-uo0044DNCpjLpEEd0ED-7" value="stateborn backend&lt;br&gt;(sequencer)" style="rounded=0;whiteSpace=wrap;html=1;fillColor=#e1d5e7;strokeColor=#9673a6;" vertex="1" parent="1">
          <mxGeometry x="690" y="440" width="120" height="60" as="geometry" />
        </mxCell>
        <mxCell id="-uo0044DNCpjLpEEd0ED-9" value="" style="shape=image;verticalLabelPosition=bottom;labelBackgroundColor=default;verticalAlign=top;aspect=fixed;imageAspect=0;image=data:image/png,iVBORw0KGgoAAAANSUhEUgAAAyAAAAFACAYAAABEGxgbAAAABGdBTUEAALGPC/xhBQAAAAFzUkdCAK7OHOkAAAAgY0hSTQAAeiYAAICEAAD6AAAAgOgAAHUwAADqYAAAOpgAABdwnLpRPAAAAAZiS0dEAP8A/wD/oL2nkwAAAAlwSFlzAAALEwAACxMBAJqcGAAAcPVJREFUeNrt3XeYXNWdJ/zvzaFSh6pWlpBAImcw2AaTg40DTowTNjZgA8azO2nfCTvv7uy+O8E7M7tjm2TAxsYR5ww2NjmZnEFCEspSVXV3pZvT+8e9jWRM6upqdXX39/M89QiEKHWfulV9vvec3+8IINoL/lPTwvgzz2DDo3di/xPPWWHXqhd7rdZlAKAVi1ealZFrn7/rF5tWHfk2DB50EP6jlOOgEREREc1BAoeAptPFL26GP9ZBMFaFOjA4EDr2OwOr8xm30Tw2dGwNAGTD9PSB0oNKLn+NbJg/9xvjDWVoBOpQHtfus5yDSERERMQAQvT6Ltm4Aa0Xt6Kwz2rVrW4/wWs1L/NarbOCTicfR9Ef/FlRkqDk8x2tWLxFK5au1EcW391+cZ1f3Gcprl65ioNJRERExABC9MoufH4d/NFxfP3Nx+Ljv3/ogNByLvbbrY/47fbCyPdf8/+VVBVqobBTLRS/JeeMa7/+pmOe+/h9D0IdHsT1+6/m4BIRERExgBDtdsHTL2DnLbdg8SknLfSajfO8dutCv9M5NHRdAUnyBq9KAbKuJ2o+/6RWKF6vlQZu2n7bHTsXnnUWbjh4Pw4yEREREQMIzfvg8cBjsMfrKO63v+Hs2HJWYNmf9VuttwW2pSZx3N3FKYpQzJyvFot3KjnzCmPRsltaLzzvmINl3HDcERx0IiIiIgYQmnfB48FHAVGGlisoVm3Hkb7VuTiwrPcGljUch2FP/g5RlqHkcqNKLvcjNZe/NldZ9KhntQPEIW449ki+CERERESziMghoG6df/+DuPXv/wwAVrW2vvh3zujoTc7o6EVes9mz8AEAcRjCazaHndHRi5zR0ZtaW1/8OwCrbv37P8P59z/IF4KIiIhoFuEKCE3K55MET//+EXjtFrSBgXLQsc71O+1Lgnbn8NB15OSN1nl0e8EKAmTdCJVC/nE1X7hayed+7DUada1QxMFvOgr/ReAlTURERMQAQnPC34QJ1t92GwaWrTCseu2UoNO+zG+3Tw1s20he1lZ32i9cSYJimo5aKPxOyReuzJUrtzW2bHL2PeUU/JPMy5qIiIioX8kcAno9l2zYiNb2nfhHCfi4YRzW2rL5M3679Se+ZQ3HQTAjX1MSRfDbbSN03XNU2z4+cpzvaoZ5zT9KeGLT3fehuHghrl61ki8eERERUZ/hrWJ6VZ985hkIEfDoFdfhsIsvWOY1xj4atNuf8C3rgMj3gWnebvXGr2IhPT8kn39OLZZuUEvFbz1x7de2HHnZRUgk4KsHHcQXk4iIiIgBhPrZxx9+FPb2nRjYb1/Tqdff5Xesy/xW862h40jdttWd9otZFCEbRqQWS/eo+dyVRqXys8a6F2xz8UJ8/Wh2yyIiIiJiAKG+86lHnobbGoe5ZIHi7Kof77fbnw4s612hbZd62dlqOomyDNk0m0ou9zO1UPiysaB8v71tV6AXB/GVow7mi0xEREQ0gyQOAU34xAMP4vRjDhderI0dYO/a9Rdes/nf/WbzhNC29X5d9XglSRwj8jw99v3D4jA8I7SdilYobj396ENHC+94Jx6/7lq+2EREREQzhCsg89yXb0lw9+DjaG3ehIF9lo34bfuDfqd1id/pHBS6rtg3dR5dX+ECZF2P1Xz+GTVfvFotmN9rvLilWly+AieMH45Pn8W3ABEREREDCE27z23ZhPHNOxBFEYzBSs6p7jwldKzP+rZ98mxb8XhDF7ooQjZNVzXN22Ujd4UxsvA2Z7xmSZKEweWL8MVlK3hREBERETGA0HT41KYX4W7YjMUnnSjuuOf+I0PHvtRvtd4X2PbgbKnz6JYoy1BMc1wtFn8oG+ZVi956/KPb77gr1lctx1dW7MOLg4iIiIgBhHoWPNathb1pG575z3+PI6/791Vex/qE3+l8NOh09o2CoOu2upKiAACiaT4TRFJV6AMDEAC4zSZCz+vyqhcgKQqUfH69ms9/U8vnvvboRX++4aD/+z9hrliCr6xew4uFiIiIiAGEpuKTDz+C8ec3oLhqRTGw7fcGlnWZ3+kcG7mekCTdbbcSZRn64CCMoWEAgDM2Cq/RyIJI0rPLS5RlaMUizEoFaqEIAAhsG3a9BndsDN2u2giCCEnXEjWff1DJ5a5UTPNHrQ2bWoP7r8JXjz6KFw0RERERAwhN1qeefAadLVswsHK52t5ZOynodC4JbfuswHVzSRR1d9FIUhoIyhWoxSIEKW2mlkQRgk4HztgY/HYLkech6WpVJQEEceJwQRhDw1ALhZf+niw9pKeht1qw6zV4rRam8v0oum7JpnmLks9fXVhYuaOxcbOfX7YMXzmUhxgSERERMYDQ6zr//oeBJMHS448Wt9x932F+p3NhYFkfDBxnQdztVilBgJrLwRwZgVYagCjLrxwf0ja48NtteK0mQsdBHIZI4vhVA4mQBQFBFCHrBrRSCWqxAFnXIYiv3S06DkN4zQbsahW+ZXW9lUxUFCiGsUvJ5b6n5vPXLzvhzU9svf/hGIKAG48/mhcVEREREQMIvZJPPP4Etvzip1h6+juWes3Gh0PLujiwrNWh73df56FpMMtlGMNlSJr2hsIKkiQNI76PyPMQ+R6SKEbySuFDTFc8JFWFqGkQJeml53ijIs+DM1qHXa8jmkJ9iKyqUHK5dXIud61WGvj21lt/uXXZOe/G1w4/jBcXEREREQMIAcD1SYLf3nkPIttBbtXyorNt57sCx7nUb7WPjTxX7batrijJ0AYGYI6MQM3l0lDQ5cQ+TR7J64aWKUkS+JYFu1qF12ggjrqsDxFFSJruq8XCg4phXGUsWfgza8PmlmQaOO1tb8WFAt86RERERAwg89SFo1W0H3sWueFBxRttvCnwnM8GHeudoWMX4m7rIkQRSi6HXLbdSpDk1w4PfXZZJ1G6LcuqVhFYFroPYBJkw2wr+dzPFc24Qhse+L01Oh4UjjgQ1w+P8OIjIiIiYgCZPz6zeROaa9fjO6efio/eee/+gWVdFNjWhwPbXhJPoSWuYpowyxXog4MQVXVWj1Hs+3DHx2HXawhsu+vnERUFimluU8zct5Vc7rpvvu0tz3/o1t+htGZfXLOchxgSERERMYDMYZ9+/El4kYD6I49i8JA1CyPb+ROv2b4wsK1DYt8Xkm7rPFQVxtAQjHIFsmHMqTELHQdOvQZnbAyR73f3ZhEEiKqaKGbuKa1UuF4yje+OP7V2Z/moI6FJCb58+KG8OImIiIgYQOaWi55Zj9Hnn8Xg6jU5p7bj7KBjXRrY9omh43RZ55FAkGTopRLMygjUQqH7Oo9+lyTw223YtSrcZhNJFHb1FhBEEbJh+Ipp3qXkc1cZlUU3j69baw3vfyCuO2hfXqREREREDCCz3/n3/B6BY2H5SSdLW++++02h617qW513hbY90P1BfAKUfB5mZQT6QCmr85j7kiiE22jCrlURdDrodsVIlGXIptlQc/mfybp+1dITTvj95jtujxQjhxvf+iZetEREREQMILPTJx56AjccfSg+fs8Dq7xW6+Oh43wicOx9ut1KBACyrsOsVKAPDUOa5XUe3Yp8H+7YKOxaDaHrdv08kqpCMcwXZcP4mlYsfv3rbz1uwwUPP4mvHcO2vUREREQMILPIh2+/B9auHRhafUDZqe96b+g4lwSWdXjkeVIyhcP2jMFBGJUKFDPHQQYQ2BacWg3O+Di6Ld4XBAGSpkVKLve4bBhXG+UFPxpb91w9t2ARvn3yWznIRERERAwg/enhJMHVjz+Fdq0OOV80Y9c5ObA6l/tW56TQdc2k27a6kgStWHypzkMQRQ72HpI4fqk+xGu1MJVxlnXdVnP5O5Rc/kuibtwedlp2oVLGJYcfgqN5fggRERExgFC/+IckwdO33oYTTz9FuOe3tx8auu4loeueF9r2cHd1HgkEQYSaL8ColKGVBiDKMgf6NcRhen6IU6vD77SRJHFXb5OsPmRU1vWbZF2/+q2nnfzkXbfelhx8+in4bwwhRERExABCM+nihx+B1bYx+sJ6DO+7cmkchh/zWq1Pho6zOgoCodvTwWXDgFkuz+s6j269VB9SryN0nC7fXQIkRUlkw1inFYtfFWX5G6PrN24d3m9f5Aomrj36KA40ERERMYDQ3nXJ8+tQW7cRhcUjA2597F2BbX0msJ3jI8+dWp3H0BDMysicO89jbwsdB3atCmdsbIr1IXqkmMb9ipm7Ri8P/ay9vdqorF6Jq/dfzUEmIiIiBhCafh9/+BG4u6pYcOih6ui6DW/zbeszgdV5R9d1Hkmyu85jZEFa5yFJ6Hb1hF5KD0iiKK0Pqe7aXR/SxTaqifoQJZf/pWrmrhleverOXU8+6esLRvB1roYQERERAwhNh/MfegxCFMBcsVRqr9t4YNBuXxw47nmB1VnY7XkeEAQopgmzXIE+OAhRUTjQ0yAOArjj47DrNQS23XW4E2UZSi6/UzH0m5RC4drC6pXP2pu2Romk4MZjjuBAExEREQMI9cZHbr8bY089jpFjj1vst9sfCzqdC33LWhP5fteTWUnTYAwPwyyXIWk6B3kviDwXdr0OZ3QUked1HRolVYWay61V8vnr1ULhG9UHH9g+dMjh+NbJJ3CQiYiIiAGEuvOZ0Ib9wBNwm01oxYFi4Nqnh5b9p6Fjvzl0XTWJ466eV5Rl6IODMCfO82Bnpb0rSRDYFuxaDe74OLo+jV4UIeu6LxvmfXLO/IKim7d6rUZLL5VgHncYrpFNjjURERHNKezJOs1adz6E0oplcuC6x3nN8csCyzondJxS3NU5EwkEUYJaKMCsjEArlVjnMWPRXYCSL6BomNBKA7BrVfjtNpI4mlSuT+IYgW2rkeedFHnuEXHO+4Wk61fmFi54oHnnQyEHmoiIiObcNIpD0Hufffop7Ny4Ge7OXRg44ID9g471iaDTPj90nKVRl52UAEAxDJiVEehDQ6zz6DNxEMAdG4NdqyLotm0vAElRIBvGViVfuFHJ577WeO655/WFC7Bw5XJccfAhHGgiIiJiAKHdLn5+AyLHQv3FF2EW8uXI8z4Q+cFnAss6PPJ9YUp1HkNDMIbLbKvb50LHgTNahzM2NtX6kETJ5R6XVOUaSdO+b7c79fI++0Aycrh2/1UcaCIiImIAme8++fjjaL6wAYNrDtCsXTtO99udy0LXPT3yvO7qPJIEoixDGxxEbmQkq/MQAXC7Vd+/pZIYgW3BqlbhTdSHdNO2VxQhaZov6/qtaiF/ZW7BolvH1z7nlfZbha8efjiHmoiIiBhA5qOLn34ezc2bsPC4o6Tqw08cGdj2pyPPe2/oOOXu6jzSg+uUfB65kQW76zxo1kmiCF6zCau6C0Gng64PlpQkyIZRlzTtR4ppfnnk6MMe3fnAI1Fp+Qpce/D+HGgiIiJiAJkvPnbHPXjoii/h6M98ZoXveZ8IbfuC0HFWTqXOQ9Z1GOUKjOFhSKrKQZ4DIt+HMzoKp15D6LpdP09WH7JRNs0bVE372sPXXLPpmM9ejm+c9FYOMhERETGAzGXn3/MAWtu2orh4SclrNc8JXffy0HGPjXxP7vout6LAGByCOVKBbLD16lwUOjbsag3O+BjiLkOqIAiQVC2UDf1BWde/pBVLv2ht39YsLlmKG996HAeZiIiIGEDmiquSBHf8+ncQNQ3G0KDe3rbtrZHvfza07dNDzy+k7Ve7eAEkCVqhAHNkBGqhCEEUOdhzWBLH8Nst2NUqvHYbSbfb9EQJsqa2ZdO8VVLVKwpLltzjjI27sefhpDNPxaU8F4aIiIgYQGavv1i/FpvXvojDzj5DePaOew4OrM6n/U7nvMjzFnR7AB0EAYppIlcZgTY4CFHmkSzzSRyG8MbHYdWqCGy767NcRFmGpGm71Hz+JiWX//KBJ7316Sdu/k2yfM0++Ld913CgiYiIiAFkNrm8E2DHHb/Frg1bsOyg1ctC1/1w6LgXhK5zYBQEXU8aZV2HMTwMY7gMSdM40PNY5Hlp297R0e7rQwQhrQ/RjWdlQ79B1vVvb3lm3ZYFq5Zh0Umn4Ut5nhlDREREDCB975PPP4exhx6BumhJTgiCc0Lb/lzoOG+OPE9KpnC3Wh8chFmpZG11OfwEIEkQ2BbsWg3uRNvernKIAEnTItkw7pNN84uJovzC37HNGjrmKHx1/wM4zkRERMQA0p/B4wW0167H8LGHyuOPPfXm0HY/Hfneu0PPK3a/X1+EWiggN7IAapF1HvQqOSSO4bdasKq74Lfb6Or8GKR1RbKmtSRV+6ls6l8ePOKQ+0YffDIsrNkXX91/Pw40ERERMYD0g4/ccQ9ERcF5bz5W+NZvb1sT2s4nQ9f9WOi6S6ZyR1o2TZjDZehDQxAVboWh1xcHAdyxMdijdYS2jamsuMm6vk3W9W/IpvHVj5x2ytqb7nswiYMA32LrXiIiImIAmTkfu/1ujK57BsMHH1n2GmMfCl3306FtHxIFgdBtnYekaTDLZdZ5UNcm6kPseh2R53X5DhcgKUoim+ZTsq5/WRsY+s7o04/Wh1cfhG+cfAIHmYiIiBhA9qYP3XwrwjBAbmgo77RaZ4Wue2loO2+NfE/vdvuLKMvQBgaQq4xAybHOg6YoSRBYFqxaFV6j0X19iChCUjVXNo17ZF2/yigWb7HGxjqyrOA7Z5/OcSYiIiIGkOl0f5Lg327+NQqFQdn2nMOCTvtzoeueG7nuQNxtnYcgQC0WYVYq0IolCJLEq4t6l0OiCF6rCbtWg99qdb8tS5Ig6XpD1vUfK/nCF03NeKLdHg//4uwzcTzDMhERETGA9Nb/SBI88+vf4sW1a7Fs9X6rEj/4ROi654eutzIOg66fVzFNmOUK6zxo2r1UH1KvpeeHdEmUFci6tlHW9RsFVfnalnUvbNhnzRocdOZp+H8ZRIiIiIgBZGo++ODDMEUBO594CsMrV5ZDy36Pb9uXRr53ZOz7Yrd3kyVVhTE0DKNShqwbvJporwldB06tDmdsFJHvd/fmFwSIqhpLqvaoappXyTnzJ6MbN9YXHnYI7DjB9449mgNNREREDCCT9Zmnn8PY2nUwVyxXrR3bT0mC8PLAcc6IPE+bSptTvVSCWRmBWiiwzoNmRpLAb7dh16pwm01MpU20pGmeYhi/ERT5S7lFi2+zN232h9asxjUH8/wQIiIi6i15rn5j5999N9xmGycetL/wk82bD21tfPGiOPA/FPl+ZSptdZV8HrmREWilEgRJ5hVEM3j7IK07UnIm9GYTVrWKoNOZdH1IEscIHUeLg+Cdkqoe13Jf/I5sGtedeND+T4794leJXirgxhPYMYuIiIh6NIWZi9/Uh397Gx760ldxzOcuXOw3Wx+LwuDC0HXXxGGIbtvqyroBs5LWeUiqyiuH+k7k+2l9SK2G0HW6DjXZ+SFrJVm5Xi0Vv/HQF6/ffszln8S3TzuFg0xEREQMIHv60G9uh1XdieKSRUXfst4dut5loeMeEweB0nXXIEWBMTgIszIC2TR5xVDfC20bdq0KZ3wccdBdcwVBECAqSiAb+kOyrl2p5nI/bW3b0cqNLMR3zjiZg0xERETzO4Cc96vfIPRc5CoLtMC23+J3Wp+NXPfM0PcL3e6LFyUJWmkARqUMNV+AIIq8WmjWSOIYfqcNp1aH12yg6/bSkgRZVduSrv9azRevUEzzXqu2y5M1HTe9/QwONBEREc2/AHLer3+Lm848De/7yc8OEGJ8OvT9j0aeO9JtnQcEAWouB3NkAfSBAQiy3PW2LaKZfXcLSMIQbqMBu7oLvmV1fS2LsgxJ06uyqn4zEfHlH77nXc9NvPeIiIiI5nwAufCpp9DatA2R50ItFReGlv3BwHE+Hfn+QXEYit1OsiRNg1kuwxguQ9I0Xh00Z0SeB2e0DrteR+R5XQcaUZZjSVWfUQzjy3LO/J7fbO2UNB3FFUtw/SGHcKCJiIho7gWQS17cgp0PPYz8gkreGRs/KwrDS2LPOynyfaXbtrqiLEMfGIRZqUDJ5dhWl+amJEFgWbBrNbiNcXTdDU4UIalqIGraHZIsX20MDd7S2VXrLDzmaFy9zzKOMxEREb2mWdNH9lO/fwxjmzZgcMVSYfSZZ46zavXLY897d9d1HkkCQZKgFgrIjSyAWiyyzoPm+O2GtI100TShDw7Cqu6C326n54dMInQncYzQdRUhCE5PVPU4K4p+qpjGlwZWLH3gPd/9XlJYsRzfOP44jjcRERG98pSk37/Aj/z2LkSeg3e+/Qzh5zffusrrtM9P4vgTkeftM5U6D8U007a6A4MQFYVXAs07cRDAbYzDrtUQ2PYU60O0FwVR/JqSy339prefueGDv/wV8gsW4YZjjuRAExER0ewJIOf95jaMrX0Ow6v2G4mj6EOBbX8q8tzDojAUplTnMVyGUR6GpOm8AmjeizwXTn0U9ujU6kMkWU4kVX1MVNWrJF39wegzz4+VDz0MN53J80OIiIiozwPIuT/8KYQ4hl4ZMbzR+mlxFP5pHAQnRr6vT6nOY3AQZpl1HkR/ZKI+pF6DOz61+hBRUWxZ024XVfUKtTR4m1urOoko4sfvezfHmYiIiPovgPzJb34HzwskKfSPjoLgM5HvnxuH4VC353kIogg1n4c5sgBaqQRBkthWl+gV3ywCkiiC12ymbXs7HXQd+CUJgiyPSar6Y0lRrolk9WFNU6LvnnEqx5mIiIgBZOZdND6G0TvvRdBqIbdo0Uqv0fh4EgQXREHQfZ0HAMU0YZQrMIaGWOdBNAlxEMAZG4NTz+pDuiTKMiRFeVFQlBu0gYGvWzt2bFSKRQy/7S24bnCIA01ERMQAsnf9xWgH6598GPb9D2Pg0IPKoee/J47CSyLXPSoOQzHpts5DVaEPDsGsVCAbBl9loi6FjpO27R0fQ+T73X3ITJwfouuPiJJ8taypP2k8+UzdPP5o7Hvo0fi34TwHmoiIiAFk+l383LPYev+DyK1ZrcS10dOTIPjTyPNOiYJA62rbR5JAkGXopRKMSgVqIWury+1WRFP4hBCQxDH8dgtOrQa32UQShl3VUAmiCElRPEnTbhMU5QtiZfhWa+26YOnxx+LaAw7kWBMRETGATI/zfnkL4iDEce9+h3jfj39+SBKFF0VB8KHY9ytxt3UeggAll4c5MgJ9YCCt8yCinkqiCG6jAbtaRWB10O0KpShJEFW1JinKdwRJvu7N577zqQd++stYVGTc9I6zONBEREQMIL3z0fsfwGPXfxMHv++dK0PX/UTouh+Jg2B1HEVdr1TIup6e5zE0DElV+YoSTbPI9+GOjcKu1RC6bpefPEIaRBRlnazr35J1/WtP//DnG4+48KP4Jg8xJCIiYgCZqvf+8KcIPRellSsK1rYd70UUXx763lFxEEhTqfMwhoZhDA9DNk2+kkR7WWjbcEZH4YyNTq0+RFEiWdUegSR+Kbdk0Y+aGze1ZU3Hj9i2l4iIiAFkss771a8R+T4SQdSFKDox9L1L4jA8Mw6CfLftPQFAMQwUli2DWixB4HkeRDMmSRIEnQ6sXbvgNRtdt+3Nzg/piLL8a1nVrk4k6S4hiV1JVXHT28/kQBMR0WuRs4cAQNzj14kHAMR7PJKX/XvAIdz7L9i0ePd3foDLzj4DX/zpLw+JXOfTSRRNqc5jT2o+D61Y4mGCRDN9B0MQoBaLkA0Dzq5d6OzaiW7e40kcI/K8fBKG70vi+ERBkr4ja/qXLzv7jKfc7/wAP/3Q+znYRETzkwRAAVAEUAEwBKCUPQayx1D239Vsbitlvyp7zHXDLGgEAKI9/r0DYAzAOIAGgGb2ayv7vVEAXvb/sLNRr+YP0/GkR15yGZafevoiSZE/Evn+xZHnrYmjSOhVR6rcggUoLlvOAELUP0kEseNgbN1aBI4ztfdmWh+SSJq2VlLVa6Mg/Nbm236749GrruA4ExHNbQaAMoBFAFYBWJY99sl+bzj7M1oWNrQsbEx1QphkAcPPwoaX/XMLwE4AmwFsArAVwBYAuwBUs+Di82WbvGlZAYmD8M1Bp/0/YlU7OQp8ma1wiea4JElvC/XipkCSIA5DIY6i/eMg/OfI986Og/DvAdzPgZ69ERWAjt1bIWb9Ff8qjzibxBDRG5MHsATAAQAOBnBIFjyWZ2Fjb3UXErB7G9fLC4sP2eOfIwA2gHoWRNYBeBrAMwDWZ6HE4ufADASQ4f0PEMwFI/8lSeLTI9/jCBPNrxzS0yeLfE9OkuT03MhIe/iAg94/+twzvJsxOw0D+EsAKzE3tjAk2L2Vw89+DQG4SLduTGznaCO9gzqWPZrgXnOiMoD9AbwJwFsAHAlgJJv49/s5ChKAQvZYCeBt2XvaykLJCwAeA/BwFkpezAILTXcAWXPuu1FctjwnCCJHl2i+EIQsfSTT8NQCCsuW5de8552477ln5vxIIt3H3Ivj4f1s0tsPd+JMAG8HcNg8eUdM7C13sslHC+k+8m1It3JsRHq3dEP2+23M3TumGtL9+ZwUTI9Wdv30uwEAhwI4C8BbAawBsHCOXBcKdtei7AfgbKR1JduyEHI30hX8tdn7nTfSpiOAKLkSBFGc3sGNkxk8w52I/vg9GSOwLMRdnpL+urNyUUyUXGk+jKQE4DMAPjDFH1ICgCcB/A3SLQF9cZXMs5+tMtK96kOvElBsANuzScmzAJ4C8HgWTObSHdMjAfwPpAXD1FsJgGsBXN/Hn2crAZwM4Bykqx0VzI8ZXB7pKs/+AN6N9GbQYwDuyB5PZOGRAWQ28W0LgWVDyeX48UM0w0LHgTNahzM6mgYQmlLWArACwLE9mvDzdNb+/dlbzB4HZBMUKwuLT+AP75hWZ/n3WgJw9KsEMZr6e/yHffh1KUhXO/4EwDsA7JuF8flKyoLXGQBOzd7TjwD4JYDbkW7bmneF7LMygASWhcbGDTDLFehDQzwBnWgmfvIFAdzxMdi1OgLb4oD0dlLRq+fhUv/skUN6t3hlFkhqSFexfg3gZqTFrs4s/L4SzK/Vr70pzIJrPwWPQwB8GMB7kW5Hoj8OI4uQrgidlYWPWwH8CMDvkW7dYgDp63ed46C9dQvcxjjMkRHopQEIksRLm2i6ZxNxDK/VhL2rCr/dQsIud0S9JiAtyj0NwEkALgVwG4CfA7grCydEMfpnu94aAJ8E8MEsRLPm543NwQ/IHn+Svce/jXSL1jgDSD9PhJIEfruN0LbhlUowKyNQ8nkIIq97oul4v4WWBbtegzs+zu1WRHvv5/Q+2eTufQDuA/ANpCsjDCLzW9QHAaQI4FwAlyPdascJWHcqAM5Duk3rLgBfzQJJkwGkn28BRBGcsTH47Tb0oSGY5TJkk/UhRD37Kee6sOs1OGNjiDy21yaaISWkHXZOBHAPgK8j3Uc+zqGZl2LM7La8owH8KdLtVgW+HD0xiHQL5tuQbr28JrvpMOd+8Mpz6ZuJggDWrl3wmk0Y5TKM4TLrQ4im8tMtCOA2GnBqVfi2DR4qStQXcgDOBHA8gN8A+CKAe8EzRuZjAJmJFRAd6VarvwZwINiXdDoMAPgQgBMA/G8AX8Icq6WS5+KrFrou2tu2wW82YY6MQGN9CNGkJHEMv9WCVc3qPGLWkBL1oSKA9yPtmnYD0m0bL3JY5lUA2dsrIMNIt1tdjvRAQZpeS7P3+Zwjz9mXLEngtdsIbBva4CDMygjUXG5aziggmkvvm8C2YNfqcMfHWOdBNDssB/C3AE4B8D8B/BbsPDUfRNi77VtXAvhvSO/Maxz+vWL7XH0/y3P9lYujCE69Dr/dhjFchjE8DFnXeUkTvfwnme/BqY/CqdcRem7XzyNkIZ/dsYj2+s/zE5HuGf8XAN/EPGrpOU952Hu1AWsA/DuAt4OF5nvTQ0gPKp2TH1izgiAIEEURSZIg7mI7SOR56OzYDq/ZgFkZgT44CFGWeWnTvJdEIdxGA3atBr/T6brOQxAEhg+imbcSwOeRnsD8eQA7OSRzlo+9swKyT3YtncMh3+uv728BNBhAZnKSlCRIkgSiKEIURURRNPlJTpIgsCy03M1wx8eRGxmBWiyybS/Nz+ARxwg6bVjVKrxWC0kUTekGgSAIL71PiWhGFZHu0R8C8DcAdnBI5qS9sQKyPAsf7+yz77uTPVpIC/Gt7J+bSOtiAqQHNYZIty9JSA9KVJFuH1ORns4+gLS7XB6AmT0MpI0eZtp2pK1456RZtQQQxzHiOIYkSZBl+aV/n+yEJ4kieM0GAsuCPjAAo1KGmsuzPoTmjdBxYFercMfHEAXdN87ZM3jELFQn6icKgI8irRP4O3AlhAFk8oYA/Hek58/MRCefJAsWY0ibK6wHsBbAVgDV7PfHsiCyZ+iIsv/3FX9sId1CNvFQs/BRyoJ7Ifu+lwJYhXT1ZynS08tzWTjZW2Nxb/Y9M4D0iyiKEMcxRFGEJEkvBZFJB5owgF2vwWs1YQyXYZbLkFgfQnNYFPhwx8Zg12oIne6bp+y53YrBg6ivf8Z/PJuY/VcAdQ7JnAsg07UFSwJwAdKC870ZPqIsYDwH4GGkNRDPZYHDAuBO8fmT7O+I9hjDNl55lXBitaQAYCQLJAcBOBTAfkhXh4YwPTUxDtIW2/ZcvXhnbRFEkiSIouilLVldb8sCEPk+Ojt3wGs1kRsZgTbA+hCaW+IwhNdswK7VEVidrtvqvrzOg9utaCYu52wiEmPmzx+YuIsqZD9PlT79OX9BFj7+F2b24DrqLX+PiXQvCQBORXrIoLGX3tO7srBxC9I7/5uQHrCZzPD4+llA2Q7gMQA/RLpNawHSlZGDARyZPVZkgaQXE8gNSA8gnNN3R2b3T6Js9WNiNQRA9/UhnQ6ajgOt0URuwQiUfCGtD+Eki2YjQQDiGH6nA6u6C16jkdZ5dLnVUMxqpRg8aIZtQ9pqdrQPwoe8R/DIZ5OPQaRnJSwCsBBABek+c2UGA5MG4FIATwL47iwPnwl48N0EG9PTnnUfAH+fTainUwJgHYAfA/gpgCeyyf5sGPeN2eOu7DNgGOnqyNEA3gLgCABLkK6idOO+LIQwgOw1SdLVBGnP+hBJkl7akz6piZIgIIljuONjCKwO9KFhmOUyZMMA0WwT2jaceh3O2Cgi398dSiadY3pTYC6KIgRJmlLNCVE2QfkV0m0a/UjKJvy5LJSUAeyLdNvGwUi7Uy3D3i9yHUJ6Vsg6AI/Mwtc9APCtbJLKAJKOwQb0fkVLBvCpbBI9ndYC+DaAHyDdYjWbfzCESFdwdiEtGi8hXR05DunZPMdkoe6N7vG3ka4Ezekfln0VQCRVhT4wgMgP4LVbSMJw0hOmKIpeatk7lfqQyPdh7dyRte2twBgagqioIOp3cRDAHRuDVashdLrfPvry4JFMoT2vYhgwKxXIugF71y44zQZXUWgqE69+Xr2PsgmEDaCG9C7pgwC+g3TrxnIAhwM4Aem5HWuwd7a5AMBhAP4awCVIi3dn2yTvJwB+xLfAtDoC01v30cpewyuQ1njMxSLCZvZ4GsA3shsQxwM4Mwt2i1/nM+y57DNjTpv5D/EkgSCKUAsF5BYtgloopl2qxsdh12vwLWvSW6B6WR8SOg7aW7bAGx+HObIAWqkEQZJA1F9TMgFJFMJvtWBVq/Db7a7rPF4pfHT9AaOqMIaHYVRGIGkaIAgo6jrkmgm7XkPo+3ztaD6xs8nFc9kkbBHSO6TvBPA2pNu1pts7AJwL4KuY2f313QRP/vCdXjrSeqF9p+n51wL4ZwDfw/w5JNNHepDgs0i3P+4P4KzsfXgk0lXSPcUAbsc8aJ09owFEEEXIhgFjeBj64BAkNV1hEGQZRqUCtViEM1qHUx/t6mTml9eHdLUtKws0XruNwLahlQZgjoxAyedfKsYlmukQH1gd2NUa3MY44jDsSfCYSncrUZahT7xXcrndK5lJAkFVkVu8GGqxCLuWfc1RxNeR5hsfaaHtDVkYOR7A+dnkpDyNf28OwIUAfoe0tSnRhOORttzt9eQmBnAngP8XwD2Ym6seb/QGxKPZ4+tIV0M+AOAkpPViQFp4fyv2zgGT8zOASIqK3MKF0Id2B48/+jOahvyixdBKA7DrNbhjY4jDYNLvjYnQMeW2vVEEZ2wUfqcNY2gYButDaIZFngu7XoczOorI674dfK+ChyCK0PJ5mCML0kM+ZfmVVzAFAUqxiIJhIA4DuI0Gz+Gh+ayJdM/3XQBOQ9p96ORp/Bl9LNJtNp+fx5NB+kMagPP2mAj30i0A/jPSFRBKbQfwfaT1bMdn78d3I63Remg+DMCMBRCtWERuwYLXn3QIApRcDkXDgF4qdb29ZGJb1kR9yJ4HGU560uf76OxK2/aa5Qr0oSGIisK3E+01cRDAzbYpBrbddae2Xp3nIYgi1HwBueFhaKUSMPF+eK2vK0nSv5vBg2iCDeBnSIvEP4m0VmPJNPw9CtLVlp8h3adOtG8Wenv5gZwgPcvizxk+XpUF4LcA7ke6RcvE7KvPml0BRJClSU08BFGENjAIJZdPJ161GgLbmvy7oVf1IQkQ2DZaW7fAbTZhVirQXuuOL1EvPs2jCH67BbtaSxs1TKGtbq/qPBQzB7NSgT44yCBO1BvbkO6VfxLAPyAtWu+1NUhrQZ7D9JwlQbPLSUgP1+ulxwH8P9k1Rq8fRG6dT9/wzBahd9FyV1QUmCMjaX1IrfaHLUYnoWf1IXEMr9lA0OlAHxyEWan84Z53oh4JLAt2rQp3fI86jym21Z3KqoekqulWxEoFsq7zBSLqrYmuT9sB/BvSjlm9/vl/LtIuPZs43PNaCWkjhF7eQdoF4P9DengfUZ8FkKl84bqO/NKl0AYGYNeq8BqNrgpZ96wPmdiWFXXzPFEIu57elTaHh2EMlyFxUkY9EHkenLFROPU6Qtft+nl6VmAuSdAGBmBW2IyBaC94EMCfAfgCen82wyEA3soAMu8dgrT9bq/ESIusf86hpTkXQCYmVGqxCMU04Q00YNdqu+tDJjEpmtiWNXGQ4ZTqQzwP7e074DbSbVn60CBEmdtSqItP8DCE12jArlbh21ZP6jy63m61R7tss1KBVhrgdkOivedhpFtZrkPaxrNXdKTtQH8IwOUwz1tHored155G2ubZ49DSnAwgL02MJAn60DCUfAHu2Fh6voDjdPFUCcIw7MH5IQkC20JriwO3MQ6zMpKeHyKKvOLo9a+eOIbfbsOuVnfXeXRJzK65KZ/nYZovNVx4qWsdwwfR3nQvgH9Buh1rsIfPewzSAmQWo89PRhZAenXSsod09YNF5zTHA8geJDVt7auVSi+17Z1KfYgkSS/Vh3SzLeul+hDLgj7A+hB6faHjwK5V4YyNIfb9GS8wl1QV+tAQzHKFLaeJZlYM4CakLTsvRu+6FS1Huv2GAWR+KqO3TQ42IO2uxsYGNH8CyEvflGGgsHQp9IHBtGi30ejqLnJv2vYKiMOX1YeUK+mp0EQT19pEncfo6O7VuykUmE8E6W4JkgT9pTqPHASBq3dEfcBCug3rdACrevScRhZqvod5cPgZ/ZFVPbyWgLST03oOK83LAJJOxNL96oppQi81YNWqCDqdrk5BnwgikiRNYVtWVh+yYwe8VivdljUwAFGWeRXOY0kUwW2Mp3Ue1gzXeWTPo+TzyGXXpyBJfJGI+stjWVj4SwC9eoMeAaAIoM7hnXfWACj06LlaSA8dDDmsNG8DyEsTKkmCPjwMpZCHOzoKu8tOQnvWh0ylbS+SBH67jcB2oDcb6basfAGCKCE9s4fmPgFIYvidDuxqFW6zgSQK0e2Oil5tt5J1HWa5DH14GJLKFTqiPhUgPUH5Y+jdIYWrACxlAJmX9ulhkH0RwPMcUmIA2YOkasgtXAS1NACnVoUzPo44CCb9PK/UtnfSQUQQkMQRnLEx+O02tIn6ENNkfcg8EDo2nNF0u1Xke7tDyRSCx5Ta6ioKjMFBGJURKIbBa5Co/z0H4G4Af9Kj5yshPYTuMQ7tvJsDLkHv6omeRnpuDREDyMsn/oqZg7xsObSBwbTLUKs56dOkX962V5Kk7tv2BgHsWhV+uwVjuAxjeJj1IXNUHARwx8dg12oIbHsKl/Efrnh03VZXkqAVS+nBngWuwhHNIh0Av0Z6kGAvfmDoAFZzWOedPHq3ihZnwdjmsBIDyCvPvCCIIrRSCUou91Lb3sC2J73//pXa9nYbRELXRXv7NnjZtixtYJD1IXPliotjeM0m7Oou+J1Oek7NFILHxLXX9XYrQYCSy73UVnf3dcbwQTSLPAFgJ4AVPXguKXseBekWL5ofBgBUevRcHoDNHFJiAHkDRFmGOZKe0TGVk6YnQsdECBEEofv6kE4HgW1DazSQGxnJ6kPYgWhWBo8kQWB1YFdr8JoNxGGAfqjzMMplGENcaSOa5TYibXm6okfPtwjpSggDyPxRQroK0qsAsolDSgwgkyDpOvILF0ErltK2vWPj6WRxknvh96wPmcq2rCSO4Y6PI+h0oA8Pw6xUIOs8g2E2CV0XTr3eH3UeSQJRVqAPDaZtdU0TEEUeJEg0u40jLfg9pUfPN5RNRtsc2nlDR+8OIHSza5KIAWQyE7SJbSlFYwW00kDX22X2bNs7tfND0voQa9dO+K3W7u0yisLXq4/FYZjWeVSrCBxn5tvqiiLUfB7myAJopdLu1TSGD6JZ/3GD9I5zDKAXy+RFADkO67yiIt1216sA4nFIiQGkS4IoQh8chJrPT6lgeCKI7Fkf0tX5IQkQ2DZaW7fAbTRgjlSgFUsQJBncs983Vw2SJIbfbsHe1V1jg1cKH1PdbqWYJsxKBfoggyvRHLUZ6YnTvQggOaR3xGn+0HoYQDwGEGIA6QFRUWCOLIBaLMGp17KtNJM/JHbP+pCpnB+SxDG8VhOBbUErlZAbWQAll2PL1D4Q2FZ6jYyN7W7tLMxcW11JVWEMD8MoVyDrnE8QzWG1bNLXi0mkgd501KLZQ+3hPDDKHkQMID0ZIF1HfsnSdFtWrQqv2UQcTv6Qz17Vh8RhCGd0FH6nDWNoGEa5zPqQGRJ5XtZFrY7Qdbp+np6d5yHL0EqltM4jn39pCxcRzVkOAL9HzyWhdwfS0eyg9PA1V9C71RRiAKGJCaJaLEIxTXitJuxqNa0P6fL8EEEQIEnSlNr2Rp6Pzo4d8JpN1ofs3asBSRTCbYyndR6W1X19Ri/qPLLzPNI6j5F0e54ss8aDaH7w0LuuVSLnBPNOhLSGqBcMcAsfMYBMg2yipw8OQc0X4IyNwal3Xx/y8vNDuqoPwR71Ic20ba9aLLFt73RdAnGMoNOBVd0Fv9VCHHW/2tyzOo9cDka5AmPPAMrwQcQA0sXHEnp3IjbNDgF6t20qB2CYQ0oMINNIVBTkFiyAVizCrtXgjI3u3vs/CROrHxOnqU+pPqTZRGBZ0IeGkKuMQDZNvlA9FNo27HoN7tgYoqD7n/c9226lKDCGshbNBrfgEdGUxeAe/vnG72GA1QAs45ASA8jeGDzDQGHZMmilEuzqLnitVlenXO/Ztneq9SF2tQq/1Urvig8PQVJZUziln8hBAGd0FHat2tUhlb0OHoIoQisWswYJRdZ5EM1vInq3asEAMv9YSNvn9oIO4KDsmow5tMQAMs0EQYBWKkHJ5eA1GmldgD35uoBXqg/pdltW6LrobNsKr9GAWalAGxiAKPOlntTrEUXwmk3YtWpX58G8UvCY0nkeggDFzKV1Hnw9iWj3z/BeFRHHnDjOO2Po3cGTIoDDkJ6uzgMJiQFkbxFlGUa5DLVQgDOanoDdzR3zPetDprQtK0ngt1tp295G1rY3n4cgSawRePVZPhDH8C0LdrUKrzGedjzrcpVBzGpxplrnIet62lZ3uAxJ44oWEb2kl21UQ3AFZL5pAmj08PkOA7AfgAc5tMQAspdJmob8osVp2956De74eE/qQ7raliUISOIY7vg4/E4HxuDQ7poBbt3545++tg1nbDQ988XzdoeSSeeY3hSYi4oCfXAQZrkCxTT5mhHRy2lZCOmFXrb0pdmhDWBnD59vCYBTADwEnpRMDCAzQBCg5HIoGgb0gcGe1YfIstx9fUgQwMq+DqOc3U1XVb5W2dg4Y6Nw6vWuupq9PHhMBMiun2fPOo9CgV3NiOjVmD0MIFYWQmj+cAE8n4WFXtzhEgG8H8C3AWzh8BIDyEzlEFHcoz4kPTfCt6xJP89EfUgv2vaGroP2tm3wmk3kRkaglQbSbVnzUBJH8FstWFnh/oye55FRcxN1HoOs8yCi11NA72pAOgwg89KTSDth9SrIHgbgPAD/gXRbHxEDyExJ60MqUPMF2PU6nLE9tvhMwsTqx1TrQ5Ak8NtthLYNbWAAZqUCJV+YPx2VkgSBZcGuVeE2Gl2dbP/y8DHV4CFpWtpWt1yGpPMsJyJ6Q4aR3nXuhV52RKLZYy2AOoDFPXo+HcDFAG4H8DCHlxhA+oCk6ygsWQJ9YCCd/I53V+Q8ETr23JYVdXEoXhxFcEZH4bfbMIaGYZTLc/5Mich1YWdNAroJga8UPLrebpUkEGU5rfOojEDJ5VjnQUSTsbCHAWQc6cGGNL9sAfBMDwMIAOwP4K8BfBZAlUNMDCD9QBCg5PMoGkZaqF6twu+0u27bO1GoPpX6kMj30dm1A16zCbNSgb7nqdpzZMzjIIA3Pg6rVk3rPKa43WrK53kIAtRCMd1uVSrN221wRNQ1CWnRb6/uWmwHV0DmozEA9wA4tYdhFgDeDeBFAP8f0m5bRAwgfTEnliToQ0NQ83m44+Ow63UEzuQnxnu27Z1SfUgCBI6N1pYtcJuNdGJcKM76iXESx/Dbbdi1Krxmc8rneUyMedfbrQQBimHCLJehDw5CZCMAIupOCcA+PXquIAsg7Fw0/0QA7gIwCqDSw+dVAVyahdp/ZQghBpA+I6oqzAUL0tPU67V0a5A/+U6Ie7bt3XM1ZPIrKzG8ZhNBx4I2UIJZGYGaz8++rUFJgsC24dTrcMbHumqF/PLwMeU6D1WFMTwMs1xhnQcRTdViAEt79Fw+gG0c0nnrUQCPATijx8+bA/DnAIoA/hHALg41MYD0mbQ+ZGkaRGo1eM1mV8XRE9uyJgrVu27bG4W760OGh2GUK5CnMmkWBCBJkMQxkjhKV3om5vJC+t8FUUpbzmZ/tluR76fBY7Te1WGQrxQ8prLdSpRlaKUSzEraiIB1HkTUA4egd/v2LQCbOKTz1jiAHwI4Cb3rhjXBRLoSsgzAPyM9IyTmkBMDSD8RBKjFrG1vswW7lrWHjeNJTVon6kMEQYAkSRBFcWr1ITt2wGu1YJYr0IcGIcpvvD4kiWNEnovQdhA4DiLfQxwE6fc0ETIEAYIoQlQUSKoGxTAgmwYkTZ/UGRhJFMFtNrK6ms6U6zwmxrKrVY8kgSCKUItFmJURaKUiBEnmKfRE1AsKgOOR3mHuhR0AtnJY560EwK1Ii9GPmKbr9b0ADgTwBQA3Id3yRQwg1D8fAwkEUYI+OAgln4c7Ngq7VkPoOF081R/WhwiC0F3bXgCBZaHlOPAaaX2IWiy+ZjiIPA9+q5Vu57ItRK8QOl7+fe8ZRiRFgWLmoJVKUItFSJr2miFnos7Db7UQd9ER7OXhY6rbrWTTzAr6hyFNFPQzfBBRbywGcHIPn289uEd/vtsI4DsADkLvV0EmHADgfwM4C8A1SGtPOhx6BhDqM5KiILdgIbRCEXat1nUtw571IVM5PySJY7jNBnzbgjE4CKNcgWKafxAmIs+FMzYGd3wcoW3/8d/xais5e/x+EscIPQ+h58FtjEM2TeiDgzCGhiBpf7gNLHTsdGzGelfnMaXtVooCY3AIZqUC2TR5ERPRdDgBwOoePt+z4CGE812E9ATzc5Gurk2XHID3AHgLgJsBfBPA/QzADCDUjy+SaaKwbBm07PyQtJtThMl2X5zYljXl+pAggFWtwmu2YFTKMIaGIcoy3EYD1q6daZvbSW4be9XQkyQIOh0Etg13fBy5BQuhDwwgiSM4Y+Owa9WuVod6GzzSVau0zmMEaqEwqa1jRESTUMomib26w9EB8EQ2AaX5bQuAa5HWF+Wn+e+qADgfwDsA3A3gR0hXRF4Ea0QYQKh/CKIIrTRRH9KAU6vBt6xJt5WdqA/Zs21vt0Ek9Fx0tm2DOz4OUZIR2NbuwvleFlpnRemBZaG1eRPc0TriKEJg2zPeVlcQRai5HIxKBVppAKLMtxQRTatjALyth8+3FcCTHFZCWgsyUYx+Pnp3xsxrGUa6InIG0lPZ7wDwmywU70LaoY0YQGimibIMY7gMrViCM1qHVa12daL3ROiYan3IxApFz0PHq33dYQi30ZjS39eztrqahtzICIzh8tw6uJGI+pUB4KMARnr4nM+AHbBotwaAfwdwJIBD9+LfayItgD8CwIUAngPwewD3ZWFkI9JubVwdYQChGQ0iWX2IWijArtXgNhpd14ckSfLStqyJFZJJzuj37jffg+Ax1ToPfWAAZqUCxcyxrS4R7S2nADinh88XIT0F2+bQ0h6eRHpux/8FsGAG/v480pW+YwB8AkANwDoADyM9r+Q5pAdnjjKQMIDQTBAEKLkCioYJfWgIdjWrD4mirtv2iqL4BwcZzo1h2r3dquvvKUkgSFmdx8gI1HwBgiiBBwcT0V6yAMBl6O3qxzYAt3Fo6WVipFuxlgH4b+hdu+du5LLHPki3aU0cmrkBwNMAHgHwFNJVvBa4ZYsBhPaW9LwJrViCYubgjo/BrlbTQvBJz7H/+PyQKIqmtE2pX4LHVLdbKbkczJER6INDe9R5MHwQ0V6hAPgMen9S9V1I7ywTvZyPtFXuIgCfxfS15p0sFcDK7HEa0u5tTQAvAHg8ezyNdMtWDUDIl5IBhKaZKMtZF6YinHoNzugYIn/y9SF7nh8ylba9/RA+plznoWowhoemfhI8EVGXH+1Iu15d0uNJYAfAr8BzGOjVtQD8UxaALwLQjz8EjeyxEGl76gBAFekqycQKyUQNySi43ZABhKbxRTUMFJYsTdv2VmvwGuNpd6pJ1irsWR8iyzKiKOr7bVk9qfNIEoiyDG1gEOZIBWouD4giDxIkoplwOoD/hfROdC89DuB3HF56HTUA/x3pSsIlfRpC9qQAWJI93gTg4wDaSA/bfCa77p9A2nFrJwCPLzEDCPVKkgCCADVfgGKY8AYHYddr8Futrtv2xnH80nam/v/2p9hWt1iEWa5AKxYhSNLuMSUi2nskAGcjvQO9usfP7SM99Xonh5negFEA/xNph6zLAZRn2ftoAMDR2ePD2fexMwskEysk67Pfa/HlZgChHhAkCfrgINRCYcr1IbNhC9aU6jxM8xXqPIiI9ro8gA8B+Dukxbe99jiAX4CFbPTGjQH4F6QHBf5XAPvN4nlvOXscAuA8pCskm7IQ8jiARwE8C2AH0ta/PKSTAYS6tbs+pACnVoczNorIZ7MIAJBUFcbQMIxKGbJucECIaCYdjPQu84eRnnreax6Ab2YTSaLJcAHcmE3W/xbAyUi3PM12hSyMHALgXUjrRGrYvWXrkeyfN2eBhBhAaNIvuG4gv3SiPqQKr9lAHM3PcC9KErTSAMyRESj5/KzZYkZEc+/jCOlKx7kALshCiDhNf9edAL4Lrn5Qd2IAtyPtOvUZpIcGLppj78V89liJ9NydDtKi9ueRHo74+yyQ7AK7bDGA0BsnCALUQhGKacJtNGBXd8G3rPlT5yAIUHM5mCMLoA8MQJBk/iwmopmgAtgfwNuRbgU5fJp/Lo8CuAKzs/YjAbfC9JOtSOtC7gbwOQCnIu1GNRfls/fp/gDeiXTL1jMA7s0C/cPZe4rXJwMIvZHPckGSYAwPQ83n4YzW4YyOInTduX3B6zqM4WEYw2VImrbHzzUior0WOpYAOCoLHicDWI7p38oSA7gJwK2zdNwkAIchrUUQ5+m1I2B3rUI/8AHcgrRm4lwAFwM4Yo7PLUWkWyPfnD0+hbTF728A3Iy0oH2MH3MMIPRGPtU1DflFi6GVBtLzQ8bGEYfB3PrEkBUYQ4MwyhUopjnplsRERFMIHHkAi5F24TkxCx9rsHdPmP49gP/A7N3DrgL4LwD+bB5fSwKA/wvgH7JA2S+qAL6MtK3zB5Cu5h2M/jm8cDoNZo+jAHwSwINIGzzckoVFroowgNBrf6wJUHI5yIYBbSBt2+s1m0hmeX2IIEnQSiWY5QrUQgGCKPK1Jprd+nUrjgBAQ9rycxjACNJOQYdmk7E12e/PxDaVbUi3yzw/y197k5c/tD7+2l4A8HmkNUbnZmHkiHn0uo0grRk5HcBzAH4A4EdIO2oxiDCA0Gv+BBVFaKUSlHwe3tgoOjt2IPRm5zk9sqYhv2gRtKFhiBPneRDRbFcC8G6kd13jV3gkb+D3X/7PL38Af7g3U8x+Xip7PPLZ11JCege0DGAZ0hOZB7LHUB/8nLUAfAHpFhGaGwG8n8VItyT9HwDfB/BWAO9Bekr5YsyP7XMa0nquQwB8FMBPAHwDad0IgwgDCL0WUZJgVkaAMERj69ZZ+T3kKxWYlRFWeBDNLYuzyc0rhYU3+nt4jT/3Sn9eyiZOEw8h+/kpZf888Xv9xgdwNYBrAAS8dGgv24L0wMufZBPyMwCckv3zYJ++Z3pJQlq4/lfZTZNvAPg2gA28NBhA6DUkACDJab3EbOuQJQiAJDN8EM09AubG2QPTLQBwA9KT1JscDppBDoD7kdYhXQPgIKRds04AsBrpquFcno8KAA4A8N+yIHIV0q1Z8/p9yQBCrxNCEn7tRESzL3zcmE14Rjkc1CdipFsnq0jPEhlGWht1ONKOUkcCWIp0e+NcvMmgAHhTFkZOQdoU4jH0V0MBBhDql0k8v3YiolmkjXTb1ecB1Dkc1MdGAdyXPb62RyA5EmnHuP0BrEJaZzWXtmsVAXwcwLFZCPkm0sMOGUCIJgj82omIZoudAP4tCyAdDgfNIg7Sww23Im3nayDdmrUK6QrJ0UjPgVmItH5kLnSWOTC7UXAA0rq2zQwgRBOT+Fl8XobAsz6IaH5IkJ4/8E8Afom0+JxotgeSjdnjt0g7Sy1AuipyJNL2vgcDWIn0PJ3Z2l2rCOBypCs/fw/gEQYQIgCCKEHA7NvOJGRfOxHRHNdE2lnn/2L2n/NB9Go8pCsEm5G2lM4jbX29Ogskx2aT+KVI21/Ptrn4OwBUAPwlgDsZQGiepw8BkqZBkCQkYTi7vnRJgqRps7ODFxHRG5uQ3Y/0BOqfIa39IJovOtnjxSyQ6EhbdK9GujpyBNKtW4uzsDIb7kgeC+BLWQj5DeZ4KSsDCL26JIGkaZB1A36nhdlTVZFA1o00gDB8ENHcEgF4EmmL3e8B2M4hIYKL9HyNDQBuQbotq4K0vuKo7LEa6ZatQh9/H4ciPTj0cgC3MoDQvCXIMhTThN+ZTTfXBCimCUHm5U1Ec0YnCx4/AvBTAGvBZn9Er8bKHi8CuBnpKshC7F4hORppDckIgAH0Vw3J/gD+GcAlAB5iAKH5GUAEAUo+B6EuIolnR6tqQRTTr5lF6EQ0u8VIW5XekwWPW8EVj3n/Y5lD0HWAfyF7/Aq7t2wdiN1F7YcAWI60A9dMOxrAvwD4NID1DCA0L6n5AmRNR+DYs+Oi1nSo+QJfOCKarXYCeAZpO9LbATwNoMFhIeqZPbds/QJpN6oFSFdFjkN6YOD+ABZh5lZHTkZaD/JXmINttRlA6HVJqgq1UJg1AUQtFCCpKl84IpotLKSnQz+JtJ3u3dk/8xTz3UIA38/C2HxdBRCya4Nb73qvlT3WAfgx0k5aBwB4C4CTkBaIV/ZyGBEBfATAA0gPapxTrzsDCL2BjzwB2uAAnLFRxH3eDUuUZWiDA2n3KyKi/hMj7Vi1HcAWAI9noePJ7Pc62Z+hPxRkAeSHHAoGkL1gDMC92eNapNuzzgZwJtJC8b21TasI4M+R1oI8xQBC846ay0MrleCM9vcNOa1UgprL8wUjmrscpHuiZQAmAPVlDwUzf4c8zr5OO3u0kJ7w/CzSO6zrAGwDUMsmOpxQvj6Bk2+aIU2kdVj3ZWHkVADnAXgz0gL26XYQgIsA/E32ucIAQvPok1+SkBtZAL/TQeR5ffk1SpqG3MgCCBIPICSawzYD+DiAcQAlpC01i9ljAMDgHr9XyEKKifSOpYm0+NTIftWywCJmDwG7t1hMnMGaZIFi4tcY6XYgG+lKRhu7zySwkG6b2pEFjF0A6tljHOnZHRFfwimHEKKZurGwGWkL7J8AOA3AhUhrNfTpnN4A+ADSFcC7GUBo3lFyOZiVCjrbt/ddRyxBFGFWKlByOb5QRHN/EjAGYNPrTFTlLFzIr/BQ9/hvysv+Xd4jiEyEjRDpFqCJf46yMOEC8LPHxH9nyCCa+8azQHAXgHcDuAzAYZi+GpHFAD4F4JHs5gcDCM0jggCzMoLQceGM1vvqS9MHh2BWRlj7QTRPPo1e578nWSAIOFRENI12Id2WdS+A/4S0aHw67oQKSOtPjsj+rllP5LVDk7pgZBn5xYuhFYt98zVpxSLyixdD5MGDREREtPc9DeAvAPwdpu+snsUA3oE5snjAAEKTJus6CsuWQyvM/FkbWqGAwrLlkHWdLwwRERHNlDaAKwH8Z6Tni/SakAWQJQwgNG8pponC8hUzuhKiFYsoLF8BxTT5ghAREdFMCwD8AOnhgZun4fn3B3ACAwjN+xBSXL4c+sDg3q29EAToA4MoLl/O8EFERET9JEbaJeufkLbw7SUjCyCz/rRlBhCaEtkwUVyxArmRBRD3QvtbMWsHXFyxArLB8EFERER9JwJwI9ITzHvZFU8AcBSAhQwgNO9JqorC0qUorVwJrViCIPT+shIEEVqxhNLKlSgsXQpJVTnwRERE1K8sAF8C8GiPn3cN0q1YDCBEgihCHxzCwKpVPd8aNbHVa2DVKuiDQxBEXrZERETU914AcFUWRnqlBOBwzPKDOTmTo95eUIoCc2QExaXLICrK1J9PVlBYshTmyIKePB8RERHRXpIA+AWAB3r4nAKAg5CekM4AQrT7rSFAVNW0JiRJpvC2TSDKEiRNneU5n4iIiOapXQC+B8Dv4XPuB6A4mweFAYRm7uITRYhvaDsV0wcRERHNWreht2eDLMEsL0RnAKEZIwgCBIHhgoiIiOa0TQDu6eHzFQEsZQAhIiIiIqJX4gK4H4DTo+czAJQZQIiIiIiI6NU8DmCsR8+lMoAQEREREdFr2QJgR4+eSwawYDbP4xlAiIiIiIim1ziAzT16LgHAUBZEGECIiIiIiOiPhAC29/D5NHAFhIiIiIiIXkUMYGcPn08HV0CIiIiIiOhVJACaPXw+kwGEiIiIiIheSy9PQ9cBSAwgRERERET0aiKkKyH99lwMIEREREREc5CMtINVL1gAAgYQIiIiIiJ6NWoPn8tC2lmLAYSIiIiIiF6R3sPn8pFuw2IAISIiIiKiPyIAKPTw+VywBoSIiIiIiF6FBGBhD5/PRnq2CAMIERERERH9ERnASI+eKwRQBbdgERERERHRq8gBKPfouTwAu2bzYDCAEBERERFNrxH0bguWzQBCRERERESvZV8AQwwgDCBERERERHvDGvSuC1YDwDgDCBERERERvRITwGFIC9F7YQsDCBERERERvZrFAI7t4fM9ifQcEAYQIiIiIiL6I4cDWNmj5/IAPIFZfAYIAwgRERER0fRRAJwJwOjR81UBrJvtg8IAQkREREQ0PQ4GcGoPn28jgG0MIERERERE9HISgHcA2KdHz5cAeBzAKAMIERERERG93L4AzkPvul+1AfwOQMAAQkREREREe1IBfBLpFqxeWQfgwbkwOAwgRERERAQAOoAFnB/2xJsBfAS9W/1IANyOtAidAYSIiIiI5oQ3AfgqgP8HwIE9nDzPN0sB/DWA5T18zgaA2zAHtl+BFxYRERERIS2YPgPA27NfzwfwUwA/RFr47HGI3hATwJ8DOK3Hz/sQgAfmyiAxgBARERHRCIDT95gfHgjgAAAfAnALgO8DeARzoAPTNNIAXAbgQqTnf/SKA+BbAOoMIFOUxAkgCLxUieYrQeBnABFR/zgWwEEv/6QGsALApwF8AOkd+F8C+C2AFzBHtgP1iArgEgB/C6DY4+d+EMCv59JgzVgACa0OgnYbSj7PSQjRPJSEIfxWC5Hn8TOAiGjmJ89nASi8xp8ZQro961QALyKtR/g50lWRHfN8/AYBXArgL7J/7iUHwLcB7GQA6QHfttHYuBH60BCMchmyrvPtTzQvkkeCoN2GXavBazURhSHHhIhoZq0AcCLSFY/XowHYP3t8GMBjAO7MHo8DGAMQzaOx2w9pwflHABjT8PwPIK3FiRlAeiT0XHR2bofXaiK3cCH0gUEIIhtzEc1VcRjCqe6CXash9H0OCBFRfzgewOou/r8SgJOy8PJZAM8AuCsLI08gvWsfz9ExywE4B8B/ysZvOiawdQD/AWD7XBu8mS9CT4DAstDatAlBx0JuwQJImsaPAqI5Jup00N65A26jgSRJOCBERP1BB3B29mu3RKRbtE7IHp9GemjeQwB+j3RlZDuAccz+1RETwJEAPgXg3Oz7ng4x0sLzW+biRdc3XbDiMIS1aydCx0Fx+TLIhsmPBKI5wm800N66Bb7jcDCIiPrLGqR38HtpOHscD8AHsAvAc0jrRR4B8BSArQBsALNlH24RwDFIu4K9A8CSaf77HgdwJdIaEAaQ6ea1mmhuilFcvgKKyRBCNNt54+NobdmM0GMLeSKiPiMAOHmaJ9MqgGXZ4wwAbQA1AJsArEW6bev5LJBUkR641y/dtQYArES6xeysLICM7IW/twrgX7LxmZP68hwQv91Ge/NmFFesgGwY/HggmqWCZhPtrVsQui47XRER9Z/BLBTszb3vheyxCsApAJIslOzMQshGAJuRbtnaCmAb0rNHrCyYhNmvvdzLKyLdgmYCKCM9A+UopFutDs7Ck7SXxscB8H8A/LjH3yMDyBvhtVtob92C0op9IKoqPyKIZpnYcdDethUBwwcRUb86EMCbZvhrEJBubyoi3Q4GpPUPfvawkK4I7ES6cjKOtNPWONLVkkYWYPwsnLzSA0gPBpSzX3WkReSDSGs4FgPYF8DyLGwMZ/99b//wCgB8BcDVmOMnz/f1Sehuswm5VkV+8RIInMAQzRpJGKKzYwc8y+JgEBH1JwHp6ke5D7+2iRUJPQsmiwAc/gp/zgfgZpP1EGmB+8Rjz38XkK5gSNncV82e28h+7YcWrDHSdrv/mIWqOa2vAwiSBE6tBq1QhFoqAeycQzQruGNjsMfHOBBERP1rBOmhgrP5/AM1e8x2MYCfID1PZPt8uPj6/qKLggBWdRfiIOBHBdEsEDkOrFoVSRxzMIiI+tcxAA7lMMy4AOlJ538O4IX58k3PitTrtVrwGuO8RIn6XZLAGRtDYNscCyKi/rYL6SnbbFE4c3wAXwXwlwBenE/f+KwIIEkUwRkd5SoIUZ+LwxBeu8XtkkRE/e9hABcA+Kvsn0MOyV5VBfDPAP4WaYH9vDJr9v0FlsW7qkT9/j61bYS2za5XRET9L8kmvl9CerjefwXwGLgisjfG/VEAlwP4J6QthuedWRNA4iiC12zwzipR336kJvCaDcRRxLEgIppdE+IXAHwewAeQFkLfizl6AvcMcwDchHTl6XtIO3jNS/LseXsk8NsdRL4PSdN4CRP1mcj34bc76U0CroAQEc3GILIewH9kk+OTAbwXwJuRnpNB3YsBPAHgWgDfxTxd9ZidAUQQEPkeIs+FpOtcCSHqt/en5yLyPYYPIqLZH0S2Afgm0nMpjgRwZvY4AOkp5vTGbQfwLQDXA3iOwzHbAgjSYvTQ86EyfBD12ZszQej5SLj9iohoLmkDuBPAPQCuQroaclr26xqkB/nRK9sJ4LdITza/G2nHK5qVASRJEHket3gQ9WEAiTwPCW8OEBHNRRHSVZHvI10VWQbgaAAnATgewD4AhjhMiAFsAfArpLUeD2UhjmZzAEGSIA4DJEkCgQGEqK9uDsRhwJsDRERzn4+0VmQ9gB8AWAjgCKSrIscAOATpKevKPBoTG8AzAH4D4EdIu4nx7Ii9GUACq4kkrkzfDIQ3WIn6NIVM41PHsRBYzfkykr3qTihkj34h9Nn40N573cUeve68u9F/JlZGtiG96z+IdHXkKADHZmFkOYAFAOZaByEbwAakHcNuQbrasR08T2VmAsjzP/4p9n/f++2BffeDIPLnBBFNOXygtXmTtfYnP5svMW4bgKenGOkEpHcn++UOXABgXfYzZ6pRdSN4Z3E26SC9Mzw4xdfeA9DkcPa1GGl3p1GkKwA3ACgj3Z51AICDs19XI10hMQHosyhYugDGs8+yRwH8PgsdGxg6+iCAjD3/XGLt3Pn5wdVrcpKqnRwFvsyOVUQ0+Sm0AElRw8j3breq1c+PPvfsfPggCQF8AcB1PZr098uEbReAz/ToZ07Iieis8iDSVq5TvSOZAGhxOGddIKlmj99n738jC6P7ZI9VAFYCWJqFlTKAYvbnpBn82v3setuBtJh8HYBHADyO9CZIC7wR0l8BBABERblXyRc+LinyR0RfvjjyvDVxFAm9CSIMM0T9qUfvTUGAKEmJpGlrJVW9VlTVb4myvGMeDWQne8y1icgY3yPzkg+gzmGg7OZBO3tsRtpdC0i3ZhUBlLJHBcCS7Ndy9utI9t/M7KFlc1g5Cyp7PoSXPeLsEb3s1wDpqkYnu6kxlt0s2YJ0VePFLDyNZf+dqxz9HkAe+/LVWH7qGTv+9Nx3/dsVP7/5Zl8QPiNG0Ydi369M6ZRkQUDoeYjDMD2MkCsrRDNPEBCHIUJv6meAiJIEUVVrgiR9RzXMaz77zrOf/vfv/hCPXXMVx5mIaG7yANSyxx/9WNgjWBh7BBAz+3c9e2jZQ93j/xGzR5QF4SD7deLRQbqSMfFwsz8bgXe7p3/qMJ1Pft6vfo04jJDEsY44PjH0vUviMDwzDoJ8EsddznUEaAMDyC1YCCWfZzesPp2QhraN8RfWIXScV52USlK6uhq9WihNEsiGgcH9VkM2TQbOPpQkCYJOB9aunfAaja7b8AqiCFFROqIs/1pWtashincJouiKsoSb3n4mB5qIiIgBZHLe+8OfIvRclFatKFhbtp8bBcGlcRgem4Sh3O2ERVJVGEPDMMplyAbPwWEAob0tdBw49TqcsVFEvt/lpSJAkOVQlOUHJUW5Krds8Y+bGza1ZU3Hj973bg4yERERA8jUfOz+B/DC3Q9i4YpFSwHhE0kYfioKwlVxFHY9uVRME0a5AmNoEKKi8hVlAKFpFgc+nLFxOPUaAtvu+hoRJRmSIm8QZPkrQPK1nZt2bN3vhGPxjeOP4yATERHNYXu1T+43jj8Oyw9YiSSOtx71gff+k5LPn6fm89fKml4XpO6aHQS2jfbWLWhs2AB3bAzJVGpMiOhVJVEEd2wMjQ0b0N66pevwIUgSZE2vq/n8tUo+f95RH3jvPyVxvHX5ASsZPoiIiOaBGSuguPDxZ7Hz0YeQW7GPFoyPn5aEwZ9Gvn9yHIZaV/UhSQJRlqGVSjArI1ALBUAUedd8Rq4qroDMpdcScQy/3YZdq8JrNhGHYVfF5oIoQpRlT1LV2wVZ+YIyOPhba9OL3sIjj8H1hx/IsSYiImIAmX6XbNyE2vPr0Pj9Ixg67MByGIbnxlF8Sex7R0Vh2HXb3rQ+ZAhGucL6EAYQmoK0zqMGZ2ys6zoPCAIkWU5EVXtElMSrZVn+8dgTz9YH3nQUKvuvxtUrV3CgiYiIGED2roubDdRuvQ2RbcGoLNw3tK2L4iA4P/S8JXHYfdvl3fUhQxAVha82Awi9QXEQwBkbm1qdBwBRliFr2jZRUW6Uzdx1Tm3nesnMoXL6Kbi2NMCBJiIiYgCZeR/81W+gaJoSWNZxoe9/OvK990S+X+y2tkMQRaj5PMyRBdBKJQiSxIksAwi9yuuWRBG8ZhN2dRf8Tgddt8uWJEiq2pJU7Seyqn5ZyeUeCDwv+N7bz+A4ExERMYD0lyRJcN4vbkYchsgvWpzv7Np5VuQ6l8Vh+JbID/RuJ0SiLEMfHIRZrkDJ5aZ8YBoxgMwpSYLAsmDXa3DHx9HtyqMgipBUxRVl+V5JN67ML1h4S2fH9o4oy7jpnLN5bg8RERFNz0noU5u77p6gfOzOezvO2PgP8gsrd8VB9KHQdS+KPO+QKAgmXR8ShyHsWg1eqwVzuAyjPAxJ03kF0LwXeS6c+ijs0Toiz+s6dEqKkkia9pSs69eJivSdzs5a1RgYxA/OfVd/3u0gIiKiGSH28xf3jbe9BflFCwCgevY73/5FtVj6gFoofF41zS2i3F12ijwP7R3bMb5+PexaFXEY8CqgeSkOA9i1KsbXr0d7x/auw4coy1BNc4taKHxeLZY+cPY73/5FANX8ogX4xtvewoEmIiKiPzBrbkpe8MCjGN+0Afsd8hZp0/rHjgt997Ox778r8oNCV/UhSQJBkqAVijBHRqAWi6wP6dlVxS1Y/fzaJFEEv9WCXa3Ca7fSs3O6aasrSZBUpS2q6s9kVb9ixb5HPPDCU/dGgytW4YbjjuRYExER0SuSZ8sXOjGhufS+Z6PQbt5rLlzypDs29iNRUS+JPO+k2PflZDITVEFAEsdwmw34VietD6lUoJisD6E5KkkQWB3YtZfVeUzyehcEAaKqhpKm3SFK4tX60NAt9s5tbbvZwE/Oez/HmYiIiF57LjEbv+hPPbkNrRcfR+R7UEulhaFlfyTy/U9HrrtmKueHyJoGo1yGMVyGpGm8Orq+qrgC0m8iz4MzWodTryOcSp2HLCeSrq+VVPXLcs78lt9s7pRUDcV9DsdXDl3CgSYiIqK5GUD2dN7Nv8Z7zzoDP/rlrw8Pff9Tked+KPL9ke66+CSAIELN5ZAbWQBtYACCLHPiywAya1+HJAzhNRqwqrvgWxaQxF297UVZhqSqVUnTvyOr6lfe+44zH//RLb/BTWefyXEmIiKi+RVAPpIkCG/+NRAl0Iolzbftt/hW+/LI886IfL/QddteSYI2MABzZARKLs/2oQwgs0oysd2qWoXXaCCewjk6kqq2JU37jZorfEk1zXu9VtODJEA++0x8i+8LIiIimiR5tn8De06APvTr33lWbddt5oLKI6Isv1tUlMsizzs6DgIlmWzb3iiCMzoKv9OBMTQEY7gM2TB4xVDfCx0n3W41NtZ1ZytBECAqSiBp2sOSql4pGdpPrV27msKChbjpnWdzkImIiKhrc/L25Qd/dQvu/9KNOOHPLlziNZvnx1F0Yeh5+8VB9y13ZcOAWa5AHxqCpKq8cl579soVkBkQ+T7csTHY9Vo67l0SFQWypr0gStL1Wql0493/5/ptx19+Pr739rM4yERERMQA8mo+duedcBttHPeudwgP3nLrkaHrXRp57nsjzxvu/pRnAUqugNxIBVqpBEGSeQUxgMy4JArhNZuwqjUEVhtJ3N04ibIMSdNGJU3/kaxrVx171umPPvCzXyb6QAHfeNvbONBERETEAPJGXPjEkxhfuwHFNat0a/OWU6MgvCx03dMjz9O6rQ8RJAl6qQSzMgK1UGDbXgaQGUoeCfx2G3atCrfZRDKVOg9N82Rdv1VS5Ctzy5f9rrV2gzu4ZhWuP+xQjjMRERH1lDjXv8HrDzsUhX2WIokit1Wr/1Irli5QzdznFNN8RFLVuJvwkEQRnLExNDZuQHvrVoSuwyuJ9qrQddDeuhWNjRvgjI11Fz4EAZKqxoppPqKauc9pxdIFrVr9l0kUuYV9ljJ8EBER0bSYV7fu/zFJ8NjNt2LLls1YsmjhvkiET4ae94nQcZbGYff1IUouB7NSgT44BFHmtiyugEyfOAzhjo/BrtUQWFb3dx5kBbJhbJU17WsQkq9u27Fz/bJly3HE2afjb7miR0RERAwgvVVPEnzmZ7/AwJJlstNpH+uNj18Wuu67Is8rTaVdqVYsptuyikUIojiPryoGkF5L4hh+qwW7VoXXamEq7aUlTWvKuv4zbXDwSiNfeLCxbUt4zbvOQZnBg4iIiBhApteHb70NURBAM/W8Zzlnh653aeA6b4l9X+96gqco0AcGYVYqUExzftaHMID0MHkkCGwbdq0GtzGObju5CaIIUVVdRTfulXXtKi1n3OzZbkdSFHz79FP4SUhEREQMIHvTR279HcY3voDhAw8ru43xD0We95nQcQ6OgkDodtIraRrMchnGcBmSpjGAMIBMWuR5cEbrsOv1rs/zgCBAUpRENoynJU27Rh8Y/M7os0/UB1fuh2+dfirf/ERERLTXiRwC4Funn4qBfQ9AAtQvO+fsK5SC+UEln/9XJZfbLspK15PHzvbtaKx/AXathm5b/9L8E4ch7FoNjfUvoLN9e9fhQ5QVKLncdiWf/1elYH7wsnPOviIB6gP7HsDwQURERDOGKyAv88nnX0Br7ToMHXmw3Hxq7Vsj3/9caNtnha6T77pt70R9yMgI1MI8qA/hCkhXkjiG327Brk6tzkMQRci60ZFN8xZJVb9YOmTNPWOPPh0W16zGV/ffj29yIiIimlFs2fQyExO0C559Nmxv335H5aADHnMbzXNES/5s5HnHRZ4nJZOcCCdxDLfRgG9ZMAaHYEzUhxBlAtuGU6vBGR/rvs5DECBpWiRp2gNKLneFPlD6Re2Z55rmiiX4wbvezkEmIiKivsAVkNfwue27UHv2GWx79gUsXr1yWeR7Hwld74LQ9Q5IJ4nd3ZGXDQPGcBnG8DAkVZ2DVxVXQN6oyPfhjI7CGa2nY9Xl21hUFMi69pysazdIqvat7es2blly4H6oHHgQvrh4Ad/MRERExAAym/zlxvXY8PRarDruWGHbk88cHFrWZYFjnxe67nBXtR1JAogi1HweuZERaKUBCJLcdaBhAJl9b7skCuE1G7CqVfidDhDHXXVME2UZsq6PKoZ5k5zLXbnk0IOe3vDAg8mqg9fgX1fuyzcvERERMYDMVl9PEvz8V7+GpBvIDRSMTn381MC1Lwls59TIdc2u2/bKMrRSCUa5AjWfnxv1IQwgr5494xh+pwOnXoPXbHbdnEAQRUi6bium8TtFN6/Olwd/ZzXaTuQ6eOfbz8THeaYHERERMYDMHR+/+x60duxEfsniwcCy3xu0rUtDxz4i8n056XKSLCoKjKEhmJURyIbBADIHA0joOLBrVThjU6zzUNVQNszHlELuKiVn/qizbft4cdFCfP2Et/LNSURERAwgc9lH774H3zzhrfjwrXeuDF3r44HjXBC67j7dTi6BtD7ErFRgDA1BVGZpfQgDyB+IAx/O2BjsWm0KdR7I6jz0FxXDuEHWc1//9ulv2zhxDRIRERExgMwTFz23Fq2NmzBy7OFS9aEnjgwd59NR4L8/cpyh+NUm1q/3omT1IWZlBFqpBCGbqDOAzK4AkkQRvGYTdi2t8+h6m54kQTKMMUlRfyAbxpdHjjns0eqDj0fFlStw3QFr+CYkIiKiWYVteKdoYgJ4waOPRn6z8dDA6n2fdEfHf+5r2p+Gtv22yPOUyU48kziG12wisCzog4MwR0agmDlAEDFnCtXncqZPYgS2BbtahTs+ntZ5dFGTIYgiJE0LZNO8UzXNL+jDg7c01q33Olu24aa3n8GhJiIiotk6W6JeuXjtRvjNOkaf3YDCPksXhh3rA5HnXhTY9mGR7wvd3sGXNA3G8DCM4TJkXZ8FV9X8XQEJXRfOaB3O6GjXJ5gjrfNIFNN8QtL06+R87vvtF7fuHD5wFdRSGdeuWck3GxERETGA0G4XPvEEWtt2wtqxHQP7rt4/tK0L/Hb7/NDzlnRdHyIIUEwTZrkCfXAQoqIwgPSROAjgjo/DrtcQ2HbXX6uoKJA1bZtaKNwom7kbGuvXPZ9btBjFJQtx/WGH8c1FREREDCD02j586+0oLl8sN17ccnzkepcFtv2O0HNLSTf1IUkCQZKgFoswyxVoxWJ/1ofMowCSRBG8Vgt2vQa/1UISRd1tt5IkyJreVEzzl5KuXTmwz7L7W5u3h98+/WS+iYiIiGhOYQ3INBs47US0774/jDzvbq008ISoa6dLlv2noeu8OfI8dVL1IYKQ1oc0Ggg6HWilEszKCNR8vqtJL00leSTwOx3Yteofnucxydchq/PwZd24T86ZX1A041av1WhZu2oYOO1EjjMRERHNOZy17kUf/t2dqD/2KBYe96bFfsc6P7DtTwWWvSYK/K7v7kuqCqNchlkuQ9L6pD5kjq+ARJ4Lu16HU68j8v2ux0hSVCg5c61iml9R87kbdz7w++3lI47Et099G98sRERExABCvXH+Q48Bro38fiuk1vMbD/I7nYtDxzkvsO0F3Z6K3Xf1IXM0gPSszkOWoZjmLtkwblLz+WuL+698pvPCpgi6iRuPOYJvEiIiImIAod77+IMPwdlZxaIjDldra9e9LbCsSwPbOTv0XHMq9SFasQhzZAHUQgGCKDKA9EASx/DbbdjVXfCmXudhK6Zxs5LLXVVZs/rOHY897hsLR/D1Y4/hm4KIiIjmBdaAzJCJCeela1/wXdu5tVBZ8JDXap4bet5lgdU5OnJdMZnMhDurD3EbDfgT54eUK1ByOQ72FASWBbteS8/zmOhgNtk6D0GApOuxkss/LGvalVqx9ON2vdYIHAffe9c7OMhEREQ0r4gcgpl11Zr9MLSgDN/qNLbefPMNZqX8YbNS+QetVNooqWpXd9rjIIBdraKxYT0627d3fx7FPBZ5Hjrbt6OxYT3sahVdtU9Oz/OAViptNCuVfzAr5Q9vvfnmG3yr0xhaUMZVa/bjQBMREdG8wy1YfeRzHRfV++7HvqefJL54+91HBY79mcCy3hc6zlC39SGCIEDJ5WBWRqANDEBU5Ok/TH22bsESgDgI4TUasGtVBJaFZAp1HrJhjCm53A8Vw7xmn5NPeGT9rXfEI28+Hl/M67zYiYiIiAGE+sPfWR3sXL8dzuguSKqSizz/JN/qfC6wrLeFrmtOqm3vni/0RH1IZWT660NmYQB5qc6jVt1d59HNty6KkHXdVnK5O9Vc/ouSpt4R+YFlDC/Awn0X43/l8rzIiYiIiAGE+tNHbrsTVnUnBlauLrujo+8LPfeSwLYODz1P7Lptr6Kk9SGVkXRSzwCC0LZh16pwx8cRTeGkelnTYsXMPS5r+tX68PAPGxvX1XMjC/GtU9hWl4iIiIgBZBY5//6HccFxR+Er9z6wX9DpXBRa9kd9q7M07nayDEDWdZiVCoyhYYiqOi8DSOz7cMZGYddqCF236+cRFQVqLr9VzpnfVPL56z71luNeuOGBR3Dj8Ufz4iUiIiJ6+RyQQ9D/nrjuy4hOPRuR644NH3H0HUG7eb8kK6ogCiuSKNaTZPLbsuIwhN9uI7BtCJIESVV7ty1LENIzM8bG0hPCXyWAiNnf91p1FqKipCGph2ebJFEEr9lEe9tWOPU6uq2vESUZSj7X1Iql76vFwt8MH3bkjfbWLfXHt+7EN054Ey9cIiIioleaKnIIZpdPPbsOrQ3rkV+6T86t7Xh7YFmXho5zYui6Srf1IaIsQysNwBwZgZrLddV56+UBpC9XQJIEvmXBrlbhNRtdB4+sziOQDeMuJZe7Sq8s+lVn64tWcdW++MqBq3mREhEREb3W3JNDMLt85cDVMIfLiIPAaq7d8H29PPRRozz8V1qx9KSkaUlXbXvDEM5oHY0N69Hetg2h68y5cQtdB+1t29DYsB7OaJerHoIASdMSrVh60igP/5VeHvpoc+2G78dBYJnDZYYPIiIiojcypeIQzF6XbN2C8aefw3fPOgMfvu3uA0LHujh0nI8Etr1wKvUhipmDWSlDHxzqbutTH62AxEEAd3wMdq2OwLa6T+qKAsU0d8qG8S3ZyF377VNOeO5PbvkNBg8+AFcvXcaLkYiIiIgBZP64aLyGxoNPwSwPqJHlnBB0Op/12+0zQ8fJx1NoJ6vmCzBHRqAVixCkSZQL9UEASaIIXqsFu1qF32mj6+1pkgTZMDpqofBrJZ+/QsoZd9v1hj9w7CG4brDCi4+IiIhokmQOwex33WAFVyQJ7r7jLj+0vN/llix8VJSVc0LDvczvdI6NXFeebKF6EsfwWk0EtgVtYAC5ygiUXtSH/EG+mIa2ukmCwLJg1arwGlOo8xBESLoeqvn8g7KuX6lXhn9hbds1LkchTjnjZHxWYHYnIiIi6mqexSGYWy5e+zi8Rogdt/4Gi047Y3nQ6XzSb7c+4VvWysjzun5eSdNglsswhsuQNO31Zu9vaAXkjYSJyayARJ4HZ7QOu17HVL9XNZfbqBaKX1Py+a/u+O1vNi86/QxoAzKuXXM4LzIiIiIiBhB6uY/e/QBEWUJl3/3kXc89e2Ro2xf7nfZ7A8sqd7sqAEGAmsul27JKAxBl+VX/nN9sorFhffcH+02EAUXBwKp9oZZKrxpA4jCE12yk260sq+tuWaIsQ8nl6mq+8CPZNK9dcMCBj9bWvxDGYYRvnnAcLyoiIiIiBhB6PRc/+Sxa2zajsGp/w9657RS/3b4stKzTAtvWu62LECQJWrEIs1yBOlEfkk36kziG327D3rkDbrvdk8MDtWIRuYWLoBYKu88qEQQkUQS/1YJdr8FrtZBMod5FMU1XzuV+qxYKV5oLl9zW3vC8U1yyHNceeiAvIiIiIiIGEJqsC558Ho1nnsDAfquH/Vbr/V6rfVFgdY6JPE9IprBioA8NwSxXIOs6AseBU6vCnULtxWv+XQMDMCojUAwDoevCrtd2H3bYzcWftdVVcvmHtGLhOrVY/EHjhXWjAwcdhhsO3Z8XDREREREDCE3FRes2wt62Fb+48HK852tf3tezOx8PLOtjgWWtiny/6+eVNR2yriFwHEzled4ISVWzAOIh9NypPU8ut0HJ5b6hmfmv/+QTn15/zvVfgrlkKa5bvZIXCxEREREDCPXKZzdvxthzG7D4pGPFHfc/dmTkup/12633BbZd6nrlIkl62iFruv4uUZahmGZTLRR/KOn6FYuOP+LR7Xc8GA8dsApXLF/Oi4OIiIiIAYSmw59u24rRDZsQhzEKCxflO7t2nhVY1mV+p/2W0HG6rg/p2wtdFCEbhqvmC/cqudyV+QULb2nv3NERZRHDq1bgC0uW8qIgIiIiYgCh6falJMFDjzyB5voXUNhn5cKg3f5A0Olc4ludA0PPEzEdZ3Xs1StcgKxpsZrLP6vk81crhcL32y9u3Fnadz8cc9RhuJzneRARERExgNDMOP/+h/Anxx0tfO+BR/Z3m41PBrb10cCylkx3Xcd0yeo8tilm7pt6aeCrHzzuqOe/+8DDyY3HH8MXm4iIiIgBhPrBpx5+Cm5zDLmlC1WnOvZmv9O5POi0zwosqxB32eZ2bxMlCUou11byhVvUfP5LxsjQfdbWnb5eGsJXjj6ELzIRERERAwj1m088/Ag6m7eitN/qkjc29m7f6nzab7ffHDqO1K/1IVmdR6QWCvepufyXtaGhnzZfWNfML1+Krx19FF9UIiIiIgYQ6mcXPrMOkedi549vwYJ3nrrcb3fO9zvtT/nt9qrI8/rqa5U0DWqhsEHNF76iFvI37vr57zYvPPcsSJqO6w9azReTiIiIiAGEZosLnnoafn0Mp590gnD7/b8/1u/YF3mt5vsD2x6Kg2BGvzZRUaCY5phWLP1AzZvXnXz8mx689Y67E7U8hBsOOZgvHhEREREDCM1Wf76riu1PPIX8kuWGXdt1amB3LvPbnVNC2zb29rYsQRQhm6ajFvK3KWb+SrOy4HedbZudxYcdgn9fMMIXi4iIiIgBhOaCz27dgvbWXXBbTegDA5WwY73H77Qv9TvWYZHnysk0t+0VBAGSpodqPveEmi9cJedzP3EbjZpeLKGwdAGuWLqMLxIRERERAwjNRR+79wH86m//Euf883+s8lvjnwhs+wK/01k+XW17JVWFms9vVkzzBrU4+LVf/PV/2vD2f/xXfOMtx/HFICIiImIAofngggceQRwnMIbLilXbcXRgWZf77fY5gWUNxGHYk79DlGUouVxDLRR+oeRyX8pVFj3sjNYDURRww3HsbkVERETEAELzziceeAR2vYrB1fsVrJ07z/I71iV+u31i6Dhqt/UhWVtdXy0U7lLzuatzCxfeMr7uhbZZHsHXGDyIiIiIGECILnrqGWx58GEsPOyQRX6r/ZGg0/m0326vCV13Us8j6zrUQmGtks9/WS0WvrXziad2LDv2aFx3yEEcZCIiIiIGEKLdLnzsCbitNtac+BZh/QMPHe5b1gVeq/UnoWUtfL36EElVIedyO7Vi8btqLnfDvscd8/jau+5N9GIB1x9xGAeXiIiIiAGE6JVdtP5FtDdvRmmf/VRnx9YTvVbrMr/dPiuwrVwSRX94IUoSFDNnqYXCLVqxeKWxaOldzRdf8AvLl+O6fffhYBIRERExgBC9vsueex6WHcLZuQ3a4OBA7HnvCmzrMq/VOjp0HAUAZMMItGLxYcXMXSlq2s+88fGGsXAJcqaMKw/Yn4NIRERExABCNDl/FSbYft/9eOq3P8ZR7zl/P68x9ll3fPxCANAHB6/XBoaueOQnN75wyGnnYvGbj8f/lnlpEhEREc1F/z/4e5klNoJtewAAAEp0RVh0Y29tbWVudABGaWxlIHNvdXJjZTogaHR0cHM6Ly9jb21tb25zLndpa2ltZWRpYS5vcmcvd2lraS9GaWxlOklQRlNfbG9nby5wbmdvrkPNAAAAJXRFWHRkYXRlOmNyZWF0ZQAyMDE1LTExLTExVDE2OjIzOjMwKzAwOjAwqoVySQAAACV0RVh0ZGF0ZTptb2RpZnkAMjAxNS0xMS0xMVQxNjoyMzozMCswMDowMNvYyvUAAABHdEVYdHNvZnR3YXJlAEltYWdlTWFnaWNrIDYuNy43LTEwIDIwMTQtMDMtMDYgUTE2IGh0dHA6Ly93d3cuaW1hZ2VtYWdpY2sub3Jnb5+iogAAABh0RVh0VGh1bWI6OkRvY3VtZW50OjpQYWdlcwAxp/+7LwAAABh0RVh0VGh1bWI6OkltYWdlOjpoZWlnaHQANTEywNBQUQAAABh0RVh0VGh1bWI6OkltYWdlOjpXaWR0aAAxMjgwDGn8WQAAABl0RVh0VGh1bWI6Ok1pbWV0eXBlAGltYWdlL3BuZz+yVk4AAAAXdEVYdFRodW1iOjpNVGltZQAxNDQ3MjU5MDEwjC83IQAAABN0RVh0VGh1bWI6OlNpemUANTQuNEtCQnLRO+sAAAAASUVORK5CYII=;" vertex="1" parent="1">
          <mxGeometry x="425" y="200" width="125" height="50" as="geometry" />
        </mxCell>
        <mxCell id="-uo0044DNCpjLpEEd0ED-11" value="blockchain" style="ellipse;shape=cloud;whiteSpace=wrap;html=1;fillColor=#ffe6cc;strokeColor=#d79b00;" vertex="1" parent="1">
          <mxGeometry x="-50" y="360" width="140" height="100" as="geometry" />
        </mxCell>
        <mxCell id="-uo0044DNCpjLpEEd0ED-12" value="" style="shape=flexArrow;endArrow=classic;startArrow=classic;html=1;rounded=0;exitX=0.907;exitY=0.679;exitDx=0;exitDy=0;exitPerimeter=0;fillColor=#fff2cc;strokeColor=#d6b656;" edge="1" parent="1">
          <mxGeometry width="100" height="100" relative="1" as="geometry">
            <mxPoint x="84.99999999999999" y="410.1199999999999" as="sourcePoint" />
            <mxPoint x="194.99" y="410" as="targetPoint" />
          </mxGeometry>
        </mxCell>
        <mxCell id="-uo0044DNCpjLpEEd0ED-13" value="" style="shape=flexArrow;endArrow=classic;startArrow=classic;html=1;rounded=0;fillColor=#fff2cc;strokeColor=#d6b656;" edge="1" parent="1">
          <mxGeometry width="100" height="100" relative="1" as="geometry">
            <mxPoint x="482" y="430" as="sourcePoint" />
            <mxPoint x="482" y="280" as="targetPoint" />
          </mxGeometry>
        </mxCell>
        <mxCell id="-uo0044DNCpjLpEEd0ED-15" value="" style="shape=image;verticalLabelPosition=bottom;labelBackgroundColor=default;verticalAlign=top;aspect=fixed;imageAspect=0;image=data:image/svg+xml,PHN2ZyB4bWxuczp4bGluaz0iaHR0cDovL3d3dy53My5vcmcvMTk5OS94bGluayIgeG1sbnM9Imh0dHA6Ly93d3cudzMub3JnLzIwMDAvc3ZnIiB4bWw6c3BhY2U9InByZXNlcnZlIiBzdHlsZT0iZW5hYmxlLWJhY2tncm91bmQ6bmV3IDAgMCA1NjAgNDAwOyIgdmlld0JveD0iMCAwIDU2MCA0MDAiIHk9IjBweCIgeD0iMHB4IiBpZD0ia2F0bWFuXzEiIHZlcnNpb249IjEuMSI+JiN4YTs8c3R5bGUgdHlwZT0idGV4dC9jc3MiPiYjeGE7CS5zdDB7ZmlsbDojMTYxNjE2O30mI3hhOwkuc3Qxe2ZpbGw6I0UxNzcyNjtzdHJva2U6I0UxNzcyNjtzdHJva2UtbGluZWNhcDpyb3VuZDtzdHJva2UtbGluZWpvaW46cm91bmQ7fSYjeGE7CS5zdDJ7ZmlsbDojRTI3NjI1O3N0cm9rZTojRTI3NjI1O3N0cm9rZS1saW5lY2FwOnJvdW5kO3N0cm9rZS1saW5lam9pbjpyb3VuZDt9JiN4YTsJLnN0M3tmaWxsOiNENUJGQjI7c3Ryb2tlOiNENUJGQjI7c3Ryb2tlLWxpbmVjYXA6cm91bmQ7c3Ryb2tlLWxpbmVqb2luOnJvdW5kO30mI3hhOwkuc3Q0e2ZpbGw6IzIzMzQ0NztzdHJva2U6IzIzMzQ0NztzdHJva2UtbGluZWNhcDpyb3VuZDtzdHJva2UtbGluZWpvaW46cm91bmQ7fSYjeGE7CS5zdDV7ZmlsbDojQ0M2MjI4O3N0cm9rZTojQ0M2MjI4O3N0cm9rZS1saW5lY2FwOnJvdW5kO3N0cm9rZS1saW5lam9pbjpyb3VuZDt9JiN4YTsJLnN0NntmaWxsOiNFMjc1MjU7c3Ryb2tlOiNFMjc1MjU7c3Ryb2tlLWxpbmVjYXA6cm91bmQ7c3Ryb2tlLWxpbmVqb2luOnJvdW5kO30mI3hhOwkuc3Q3e2ZpbGw6I0Y1ODQxRjtzdHJva2U6I0Y1ODQxRjtzdHJva2UtbGluZWNhcDpyb3VuZDtzdHJva2UtbGluZWpvaW46cm91bmQ7fSYjeGE7CS5zdDh7ZmlsbDojQzBBQzlEO3N0cm9rZTojQzBBQzlEO3N0cm9rZS1saW5lY2FwOnJvdW5kO3N0cm9rZS1saW5lam9pbjpyb3VuZDt9JiN4YTsJLnN0OXtmaWxsOiMxNjE2MTY7c3Ryb2tlOiMxNjE2MTY7c3Ryb2tlLWxpbmVjYXA6cm91bmQ7c3Ryb2tlLWxpbmVqb2luOnJvdW5kO30mI3hhOwkuc3QxMHtmaWxsOiM3NjNFMUE7c3Ryb2tlOiM3NjNFMUE7c3Ryb2tlLWxpbmVjYXA6cm91bmQ7c3Ryb2tlLWxpbmVqb2luOnJvdW5kO30mI3hhOzwvc3R5bGU+JiN4YTs8Zz4mI3hhOwk8cGF0aCBkPSJNNDQ4LjgsMjAxLjFjLTIuMi0xLjUtNC42LTIuNS03LTMuOGMtMS41LTAuOC0zLjEtMS42LTQuNC0yLjdjLTIuMi0xLjgtMS44LTUuNCwwLjYtN2MzLjMtMi4yLDguOC0xLDkuNCwzLjUmIzEwOyYjOTsmIzk7YzAsMC4xLDAuMSwwLjIsMC4yLDAuMmg1YzAuMSwwLDAuMi0wLjEsMC4yLTAuMmMtMC4zLTMuMS0xLjUtNS43LTMuNy03LjRjLTIuMS0xLjYtNC41LTIuNC03LjEtMi40Yy0xMy4yLDAtMTQuNCwxNC03LjMsMTguNCYjMTA7JiM5OyYjOTtjMC44LDAuNSw3LjgsNCwxMC4zLDUuNmMyLjUsMS41LDMuMiw0LjMsMi4yLDYuNWMtMSwyLTMuNSwzLjQtNiwzLjJjLTIuOC0wLjItNC45LTEuNy01LjctNGMtMC4xLTAuNC0wLjItMS4yLTAuMi0xLjYmIzEwOyYjOTsmIzk7YzAtMC4xLTAuMS0wLjItMC4yLTAuMmgtNS40Yy0wLjEsMC0wLjIsMC4xLTAuMiwwLjJjMCwzLjksMSw2LjEsMy42LDguMWMyLjUsMS45LDUuMiwyLjcsOC4xLDIuN2M3LjQsMCwxMS4yLTQuMiwxMi04LjUmIzEwOyYjOTsmIzk7QzQ1My44LDIwNy41LDQ1Mi42LDIwMy43LDQ0OC44LDIwMS4xeiIgY2xhc3M9InN0MCIvPiYjeGE7CTxwYXRoIGQ9Ik0yMTMuMSwxODIuMWgtMi40aC0yLjZjLTAuMSwwLTAuMiwwLjEtMC4yLDAuMWwtNC41LDE0LjdjLTAuMSwwLjItMC4zLDAuMi0wLjQsMGwtNC41LTE0LjcmIzEwOyYjOTsmIzk7YzAtMC4xLTAuMS0wLjEtMC4yLTAuMWgtMi42aC0yLjRoLTMuMmMtMC4xLDAtMC4yLDAuMS0wLjIsMC4ydjM3LjVjMCwwLjEsMC4xLDAuMiwwLjIsMC4yaDUuNGMwLjEsMCwwLjItMC4xLDAuMi0wLjJ2LTI4LjUmIzEwOyYjOTsmIzk7YzAtMC4yLDAuMy0wLjMsMC40LTAuMWw0LjUsMTQuOGwwLjMsMWMwLDAuMSwwLjEsMC4xLDAuMiwwLjFoNC4yYzAuMSwwLDAuMi0wLjEsMC4yLTAuMWwwLjMtMWw0LjUtMTQuOGMwLjEtMC4yLDAuNC0wLjIsMC40LDAuMSYjMTA7JiM5OyYjOTt2MjguNWMwLDAuMSwwLjEsMC4yLDAuMiwwLjJoNS40YzAuMSwwLDAuMi0wLjEsMC4yLTAuMnYtMzcuNWMwLTAuMS0wLjEtMC4yLTAuMi0wLjJIMjEzLjFMMjEzLjEsMTgyLjF6IiBjbGFzcz0ic3QwIi8+JiN4YTsJPHBhdGggZD0iTTM2NS43LDE4Mi4xYy0wLjEsMC0wLjIsMC4xLTAuMiwwLjFsLTQuNSwxNC43Yy0wLjEsMC4yLTAuMywwLjItMC40LDBsLTQuNS0xNC43YzAtMC4xLTAuMS0wLjEtMC4yLTAuMWgtOC4zJiMxMDsmIzk7JiM5O2MtMC4xLDAtMC4yLDAuMS0wLjIsMC4ydjM3LjVjMCwwLjEsMC4xLDAuMiwwLjIsMC4yaDUuNGMwLjEsMCwwLjItMC4xLDAuMi0wLjJ2LTI4LjVjMC0wLjIsMC4zLTAuMywwLjQtMC4xbDQuNSwxNC44bDAuMywxJiMxMDsmIzk7JiM5O2MwLDAuMSwwLjEsMC4xLDAuMiwwLjFoNC4yYzAuMSwwLDAuMi0wLjEsMC4yLTAuMWwwLjMtMWw0LjUtMTQuOGMwLjEtMC4yLDAuNC0wLjIsMC40LDAuMXYyOC41YzAsMC4xLDAuMSwwLjIsMC4yLDAuMmg1LjQmIzEwOyYjOTsmIzk7YzAuMSwwLDAuMi0wLjEsMC4yLTAuMnYtMzcuNWMwLTAuMS0wLjEtMC4yLTAuMi0wLjJIMzY1LjdMMzY1LjcsMTgyLjF6IiBjbGFzcz0ic3QwIi8+JiN4YTsJPHBhdGggZD0iTTI5NS43LDE4Mi4xaC0xMC4xaC01LjRIMjcwYy0wLjEsMC0wLjIsMC4xLTAuMiwwLjJ2NC43YzAsMC4xLDAuMSwwLjIsMC4yLDAuMmg5Ljl2MzIuNiYjMTA7JiM5OyYjOTtjMCwwLjEsMC4xLDAuMiwwLjIsMC4yaDUuNGMwLjEsMCwwLjItMC4xLDAuMi0wLjJ2LTMyLjZoOS45YzAuMSwwLDAuMi0wLjEsMC4yLTAuMnYtNC43QzI5NS45LDE4Mi4yLDI5NS44LDE4Mi4xLDI5NS43LDE4Mi4xeiIgY2xhc3M9InN0MCIvPiYjeGE7CTxwYXRoIGQ9Ik0zMjcuNywyMjBoNC45YzAuMSwwLDAuMi0wLjEsMC4yLTAuM2wtMTAuMi0zNy42YzAtMC4xLTAuMS0wLjEtMC4yLTAuMWgtMS45aC0zLjNoLTEuOSYjMTA7JiM5OyYjOTtjLTAuMSwwLTAuMiwwLjEtMC4yLDAuMWwtMTAuMiwzNy42YzAsMC4xLDAuMSwwLjMsMC4yLDAuM2g0LjljMC4xLDAsMC4yLTAuMSwwLjItMC4xbDMtMTFjMC0wLjEsMC4xLTAuMSwwLjItMC4xaDEwLjkmIzEwOyYjOTsmIzk7YzAuMSwwLDAuMiwwLjEsMC4yLDAuMWwzLDExQzMyNy41LDIxOS45LDMyNy42LDIyMCwzMjcuNywyMjB6IE0zMTQuNywyMDMuNGw0LTE0LjdjMC4xLTAuMiwwLjMtMC4yLDAuNCwwbDQsMTQuNyYjMTA7JiM5OyYjOTtjMCwwLjEtMC4xLDAuMy0wLjIsMC4zaC03LjlDMzE0LjgsMjAzLjcsMzE0LjcsMjAzLjUsMzE0LjcsMjAzLjR6IiBjbGFzcz0ic3QwIi8+JiN4YTsJPHBhdGggZD0iTTQxMS45LDIyMGg0LjljMC4xLDAsMC4yLTAuMSwwLjItMC4zbC0xMC4yLTM3LjZjMC0wLjEtMC4xLTAuMS0wLjItMC4xaC0xLjloLTMuM2gtMS45JiMxMDsmIzk7JiM5O2MtMC4xLDAtMC4yLDAuMS0wLjIsMC4xbC0xMC4yLDM3LjZjMCwwLjEsMC4xLDAuMywwLjIsMC4zaDQuOWMwLjEsMCwwLjItMC4xLDAuMi0wLjFsMy0xMWMwLTAuMSwwLjEtMC4xLDAuMi0wLjFoMTAuOSYjMTA7JiM5OyYjOTtjMC4xLDAsMC4yLDAuMSwwLjIsMC4xbDMsMTFDNDExLjcsMjE5LjksNDExLjgsMjIwLDQxMS45LDIyMHogTTM5OC45LDIwMy40bDQtMTQuN2MwLjEtMC4yLDAuMy0wLjIsMC40LDBsNCwxNC43JiMxMDsmIzk7JiM5O2MwLDAuMS0wLjEsMC4zLTAuMiwwLjNoLTcuOUMzOTksMjAzLjcsMzk4LjksMjAzLjUsMzk4LjksMjAzLjR6IiBjbGFzcz0ic3QwIi8+JiN4YTsJPHBhdGggZD0iTTIzOC41LDIxNC40di0xMS42YzAtMC4xLDAuMS0wLjIsMC4yLTAuMmgxNC41YzAuMSwwLDAuMi0wLjEsMC4yLTAuMnYtNC43YzAtMC4xLTAuMS0wLjItMC4yLTAuMmgtMTQuNSYjMTA7JiM5OyYjOTtjLTAuMSwwLTAuMi0wLjEtMC4yLTAuMnYtOS45YzAtMC4xLDAuMS0wLjIsMC4yLTAuMmgxNi40YzAuMSwwLDAuMi0wLjEsMC4yLTAuMnYtNC43YzAtMC4xLTAuMS0wLjItMC4yLTAuMmgtMTYuNmgtNS42JiMxMDsmIzk7JiM5O2MtMC4xLDAtMC4yLDAuMS0wLjIsMC4ydjQuOXYxMC40djUuMXYxMnY1LjFjMCwwLjEsMC4xLDAuMiwwLjIsMC4yaDUuNmgxNy4zYzAuMSwwLDAuMi0wLjEsMC4yLTAuMnYtNC45YzAtMC4xLTAuMS0wLjItMC4yLTAuMiYjMTA7JiM5OyYjOTtoLTE3LjJDMjM4LjYsMjE0LjYsMjM4LjUsMjE0LjUsMjM4LjUsMjE0LjR6IiBjbGFzcz0ic3QwIi8+JiN4YTsJPHBhdGggZD0iTTQ5OC40LDIxOS42bC0xOC44LTE5LjRjLTAuMS0wLjEtMC4xLTAuMiwwLTAuM2wxNi45LTE3LjZjMC4xLTAuMSwwLTAuMy0wLjEtMC4zaC02LjljLTAuMSwwLTAuMSwwLTAuMSwwLjEmIzEwOyYjOTsmIzk7TDQ3NSwxOTcuMWMtMC4xLDAuMS0wLjMsMC0wLjMtMC4xdi0xNC42YzAtMC4xLTAuMS0wLjItMC4yLTAuMkg0NjljLTAuMSwwLTAuMiwwLjEtMC4yLDAuMnYzNy41YzAsMC4xLDAuMSwwLjIsMC4yLDAuMmg1LjQmIzEwOyYjOTsmIzk7YzAuMSwwLDAuMi0wLjEsMC4yLTAuMnYtMTYuNWMwLTAuMiwwLjItMC4zLDAuMy0wLjFsMTYuMiwxNi44YzAsMCwwLjEsMC4xLDAuMSwwLjFoNi45QzQ5OC40LDIyMCw0OTguNSwyMTkuNyw0OTguNCwyMTkuNnoiIGNsYXNzPSJzdDAiLz4mI3hhOzwvZz4mI3hhOzxnPiYjeGE7CTxwb2x5Z29uIHBvaW50cz0iMTUyLjgsMTYxLjkgMTIwLDE4Ni4zIDEyNi4xLDE3MS45IiBjbGFzcz0ic3QxIi8+JiN4YTsJPGc+JiN4YTsJCTxwb2x5Z29uIHBvaW50cz0iNzcsMTYxLjkgMTA5LjYsMTg2LjUgMTAzLjgsMTcxLjkiIGNsYXNzPSJzdDIiLz4mI3hhOwkJPHBvbHlnb24gcG9pbnRzPSIxNDEsMjE4LjQgMTMyLjIsMjMxLjggMTUxLDIzNyAxNTYuMywyMTguNyIgY2xhc3M9InN0MiIvPiYjeGE7CQk8cG9seWdvbiBwb2ludHM9IjczLjYsMjE4LjcgNzguOSwyMzcgOTcuNiwyMzEuOCA4OC45LDIxOC40IiBjbGFzcz0ic3QyIi8+JiN4YTsJCTxwb2x5Z29uIHBvaW50cz0iOTYuNiwxOTUuOCA5MS40LDIwMy43IDEwOS45LDIwNC41IDEwOS4zLDE4NC41IiBjbGFzcz0ic3QyIi8+JiN4YTsJCTxwb2x5Z29uIHBvaW50cz0iMTMzLjMsMTk1LjggMTIwLjQsMTg0LjMgMTIwLDIwNC41IDEzOC41LDIwMy43IiBjbGFzcz0ic3QyIi8+JiN4YTsJCTxwb2x5Z29uIHBvaW50cz0iOTcuNiwyMzEuOCAxMDguOCwyMjYuNCA5OS4xLDIxOC44IiBjbGFzcz0ic3QyIi8+JiN4YTsJCTxwb2x5Z29uIHBvaW50cz0iMTIxLjEsMjI2LjQgMTMyLjIsMjMxLjggMTMwLjcsMjE4LjgiIGNsYXNzPSJzdDIiLz4mI3hhOwk8L2c+JiN4YTsJPGc+JiN4YTsJCTxwb2x5Z29uIHBvaW50cz0iMTMyLjIsMjMxLjggMTIxLjEsMjI2LjQgMTIyLDIzMy42IDEyMS45LDIzNi43IiBjbGFzcz0ic3QzIi8+JiN4YTsJCTxwb2x5Z29uIHBvaW50cz0iOTcuNiwyMzEuOCAxMDgsMjM2LjcgMTA3LjksMjMzLjYgMTA4LjgsMjI2LjQiIGNsYXNzPSJzdDMiLz4mI3hhOwk8L2c+JiN4YTsJPHBvbHlnb24gcG9pbnRzPSIxMDguMiwyMTQgOTguOSwyMTEuMyAxMDUuNCwyMDguMyIgY2xhc3M9InN0NCIvPiYjeGE7CTxwb2x5Z29uIHBvaW50cz0iMTIxLjcsMjE0IDEyNC40LDIwOC4zIDEzMSwyMTEuMyIgY2xhc3M9InN0NCIvPiYjeGE7CTxnPiYjeGE7CQk8cG9seWdvbiBwb2ludHM9Ijk3LjYsMjMxLjggOTkuMiwyMTguNCA4OC45LDIxOC43IiBjbGFzcz0ic3Q1Ii8+JiN4YTsJCTxwb2x5Z29uIHBvaW50cz0iMTMwLjcsMjE4LjQgMTMyLjIsMjMxLjggMTQxLDIxOC43IiBjbGFzcz0ic3Q1Ii8+JiN4YTsJCTxwb2x5Z29uIHBvaW50cz0iMTM4LjUsMjAzLjcgMTIwLDIwNC41IDEyMS43LDIxNCAxMjQuNCwyMDguMyAxMzEsMjExLjMiIGNsYXNzPSJzdDUiLz4mI3hhOwkJPHBvbHlnb24gcG9pbnRzPSI5OC45LDIxMS4zIDEwNS40LDIwOC4zIDEwOC4yLDIxNCAxMDkuOSwyMDQuNSA5MS40LDIwMy43IiBjbGFzcz0ic3Q1Ii8+JiN4YTsJPC9nPiYjeGE7CTxnPiYjeGE7CQk8cG9seWdvbiBwb2ludHM9IjkxLjQsMjAzLjcgOTkuMSwyMTguOCA5OC45LDIxMS4zIiBjbGFzcz0ic3Q2Ii8+JiN4YTsJCTxwb2x5Z29uIHBvaW50cz0iMTMxLDIxMS4zIDEzMC43LDIxOC44IDEzOC41LDIwMy43IiBjbGFzcz0ic3Q2Ii8+JiN4YTsJCTxwb2x5Z29uIHBvaW50cz0iMTA5LjksMjA0LjUgMTA4LjIsMjE0IDExMC4zLDIyNS4zIDExMC44LDIxMC40IiBjbGFzcz0ic3Q2Ii8+JiN4YTsJCTxwb2x5Z29uIHBvaW50cz0iMTIwLDIwNC41IDExOS4xLDIxMC40IDExOS41LDIyNS4zIDEyMS43LDIxNCIgY2xhc3M9InN0NiIvPiYjeGE7CTwvZz4mI3hhOwk8cG9seWdvbiBwb2ludHM9IjEyMS43LDIxNCAxMTkuNSwyMjUuMyAxMjEuMSwyMjYuNCAxMzAuNywyMTguOCAxMzEsMjExLjMiIGNsYXNzPSJzdDciLz4mI3hhOwk8cG9seWdvbiBwb2ludHM9Ijk4LjksMjExLjMgOTkuMSwyMTguOCAxMDguOCwyMjYuNCAxMTAuMywyMjUuMyAxMDguMiwyMTQiIGNsYXNzPSJzdDciLz4mI3hhOwk8cG9seWdvbiBwb2ludHM9IjEyMS45LDIzNi43IDEyMiwyMzMuNiAxMjEuMSwyMzIuOSAxMDguNywyMzIuOSAxMDcuOSwyMzMuNiAxMDgsMjM2LjcgOTcuNiwyMzEuOCAxMDEuMiwyMzQuOCAmIzEwOyYjOTsmIzk7MTA4LjYsMjM5LjkgMTIxLjIsMjM5LjkgMTI4LjYsMjM0LjggMTMyLjIsMjMxLjgiIGNsYXNzPSJzdDgiLz4mI3hhOwk8cG9seWdvbiBwb2ludHM9IjEyMS4xLDIyNi40IDExOS41LDIyNS4zIDExMC4zLDIyNS4zIDEwOC44LDIyNi40IDEwNy45LDIzMy42IDEwOC43LDIzMi45IDEyMS4xLDIzMi45IDEyMiwyMzMuNiIgY2xhc3M9InN0OSIvPiYjeGE7CTxnPiYjeGE7CQk8cG9seWdvbiBwb2ludHM9IjE1NC4yLDE4Ny45IDE1NywxNzQuNCAxNTIuOCwxNjEuOSAxMjEuMSwxODUuNSAxMzMuMywxOTUuOCAxNTAuNSwyMDAuOCAxNTQuMywxOTYuNCAxNTIuNywxOTUuMiAmIzEwOyYjOTsmIzk7JiM5OzE1NS4zLDE5Mi44IDE1My4zLDE5MS4yIDE1NS45LDE4OS4yIiBjbGFzcz0ic3QxMCIvPiYjeGE7CQk8cG9seWdvbiBwb2ludHM9IjcyLjksMTc0LjQgNzUuNywxODcuOSA3My45LDE4OS4yIDc2LjUsMTkxLjIgNzQuNSwxOTIuOCA3Ny4yLDE5NS4yIDc1LjUsMTk2LjQgNzkuMywyMDAuOCAmIzEwOyYjOTsmIzk7JiM5Ozk2LjYsMTk1LjggMTA4LjgsMTg1LjUgNzcsMTYxLjkiIGNsYXNzPSJzdDEwIi8+JiN4YTsJPC9nPiYjeGE7CTxwb2x5Z29uIHBvaW50cz0iMTUwLjUsMjAwLjggMTMzLjMsMTk1LjggMTM4LjUsMjAzLjcgMTMwLjcsMjE4LjggMTQxLDIxOC43IDE1Ni4zLDIxOC43IiBjbGFzcz0ic3Q3Ii8+JiN4YTsJPHBvbHlnb24gcG9pbnRzPSI5Ni42LDE5NS44IDc5LjMsMjAwLjggNzMuNiwyMTguNyA4OC45LDIxOC43IDk5LjEsMjE4LjggOTEuNCwyMDMuNyIgY2xhc3M9InN0NyIvPiYjeGE7CTxwb2x5Z29uIHBvaW50cz0iMTIwLDIwNC41IDEyMS4xLDE4NS41IDEyNi4xLDE3MS45IDEwMy44LDE3MS45IDEwOC44LDE4NS41IDEwOS45LDIwNC41IDExMC4zLDIxMC41IDExMC4zLDIyNS4zICYjMTA7JiM5OyYjOTsxMTkuNSwyMjUuMyAxMTkuNSwyMTAuNSIgY2xhc3M9InN0NyIvPiYjeGE7PC9nPiYjeGE7PC9zdmc+;" vertex="1" parent="1">
          <mxGeometry x="200" y="350" width="154" height="110" as="geometry" />
        </mxCell>
        <mxCell id="-uo0044DNCpjLpEEd0ED-18" value="&lt;b&gt;HTTP&lt;br&gt;(REST)&lt;/b&gt;" style="text;html=1;strokeColor=none;fillColor=none;align=center;verticalAlign=middle;whiteSpace=wrap;rounded=0;" vertex="1" parent="1">
          <mxGeometry x="590" y="430" width="60" height="30" as="geometry" />
        </mxCell>
        <mxCell id="-uo0044DNCpjLpEEd0ED-19" value="&lt;b&gt;HTTP&lt;br&gt;&lt;/b&gt;" style="text;html=1;strokeColor=none;fillColor=none;align=center;verticalAlign=middle;whiteSpace=wrap;rounded=0;" vertex="1" parent="1">
          <mxGeometry x="485" y="350" width="60" height="30" as="geometry" />
        </mxCell>
        <mxCell id="-uo0044DNCpjLpEEd0ED-20" value="&lt;b&gt;HTTP&lt;br&gt;(RPC)&lt;br&gt;&lt;/b&gt;" style="text;html=1;strokeColor=none;fillColor=none;align=center;verticalAlign=middle;whiteSpace=wrap;rounded=0;" vertex="1" parent="1">
          <mxGeometry x="110" y="370" width="60" height="30" as="geometry" />
        </mxCell>
        <mxCell id="-uo0044DNCpjLpEEd0ED-21" value="" style="endArrow=classic;startArrow=classic;html=1;rounded=0;entryX=0;entryY=0.25;entryDx=0;entryDy=0;exitX=1;exitY=0.25;exitDx=0;exitDy=0;" edge="1" parent="1" source="-uo0044DNCpjLpEEd0ED-3" target="-uo0044DNCpjLpEEd0ED-4">
          <mxGeometry width="50" height="50" relative="1" as="geometry">
            <mxPoint x="380" y="470" as="sourcePoint" />
            <mxPoint x="430" y="420" as="targetPoint" />
          </mxGeometry>
        </mxCell>
        <mxCell id="-uo0044DNCpjLpEEd0ED-22" value="" style="endArrow=classic;startArrow=classic;html=1;rounded=0;entryX=0;entryY=0.75;entryDx=0;entryDy=0;exitX=1;exitY=0.5;exitDx=0;exitDy=0;exitPerimeter=0;" edge="1" parent="1" source="-uo0044DNCpjLpEEd0ED-2" target="-uo0044DNCpjLpEEd0ED-4">
          <mxGeometry width="50" height="50" relative="1" as="geometry">
            <mxPoint x="340" y="540" as="sourcePoint" />
            <mxPoint x="390" y="490" as="targetPoint" />
          </mxGeometry>
        </mxCell>
        <mxCell id="-uo0044DNCpjLpEEd0ED-23" value="" style="shape=flexArrow;endArrow=classic;startArrow=classic;html=1;rounded=0;exitX=0.907;exitY=0.679;exitDx=0;exitDy=0;exitPerimeter=0;fillColor=#fff2cc;strokeColor=#d6b656;" edge="1" parent="1">
          <mxGeometry width="100" height="100" relative="1" as="geometry">
            <mxPoint x="560" y="469.77999999999986" as="sourcePoint" />
            <mxPoint x="679.99" y="469.65999999999997" as="targetPoint" />
          </mxGeometry>
        </mxCell>
        <mxCell id="-uo0044DNCpjLpEEd0ED-24" value="local storage" style="shape=cylinder3;whiteSpace=wrap;html=1;boundedLbl=1;backgroundOutline=1;size=15;fillColor=#dae8fc;strokeColor=#6c8ebf;" vertex="1" parent="1">
          <mxGeometry x="443.5" y="525" width="93" height="65" as="geometry" />
        </mxCell>
        <mxCell id="-uo0044DNCpjLpEEd0ED-25" value="" style="endArrow=classic;startArrow=classic;html=1;rounded=0;entryX=0.5;entryY=1;entryDx=0;entryDy=0;exitX=0.5;exitY=0;exitDx=0;exitDy=0;exitPerimeter=0;" edge="1" parent="1" source="-uo0044DNCpjLpEEd0ED-24" target="-uo0044DNCpjLpEEd0ED-4">
          <mxGeometry width="50" height="50" relative="1" as="geometry">
            <mxPoint x="460" y="550" as="sourcePoint" />
            <mxPoint x="510" y="500" as="targetPoint" />
          </mxGeometry>
        </mxCell>
      </root>
    </mxGraphModel>
  </diagram>
</mxfile>
